<svg width="1620" height="1596" xmlns="http://www.w3.org/2000/svg" xmlns:xlink="http://www.w3.org/1999/xlink" overflow="hidden"><defs><clipPath id="clip0"><rect x="406" y="519" width="1620" height="1596"/></clipPath><clipPath id="clip1"><rect x="633" y="544" width="275" height="274"/></clipPath><clipPath id="clip2"><rect x="633" y="544" width="275" height="274"/></clipPath><clipPath id="clip3"><rect x="633" y="540" width="275" height="281"/></clipPath><clipPath id="clip4"><rect x="1474" y="561" width="296" height="297"/></clipPath><clipPath id="clip5"><rect x="1474" y="561" width="296" height="297"/></clipPath><clipPath id="clip6"><rect x="1474" y="561" width="296" height="297"/></clipPath><clipPath id="clip7"><rect x="1761" y="1366" width="266" height="266"/></clipPath><clipPath id="clip8"><rect x="1761" y="1366" width="266" height="266"/></clipPath><clipPath id="clip9"><rect x="1761" y="1366" width="266" height="266"/></clipPath><clipPath id="clip10"><rect x="1089" y="1860" width="256" height="256"/></clipPath><clipPath id="clip11"><rect x="1089" y="1860" width="256" height="256"/></clipPath><clipPath id="clip12"><rect x="1089" y="1860" width="256" height="256"/></clipPath><clipPath id="clip13"><rect x="405" y="1368" width="262" height="262"/></clipPath><clipPath id="clip14"><rect x="405" y="1368" width="262" height="262"/></clipPath><clipPath id="clip15"><rect x="405" y="1368" width="262" height="262"/></clipPath></defs><g clip-path="url(#clip0)" transform="translate(-406 -519)"><path d="M1144.07 1350.46 1150.36 1355.65C1166.25 1366.38 1185.39 1372.65 1206.01 1372.65 1226.62 1372.65 1245.77 1366.38 1261.65 1355.65L1265.87 1352.17 1648.04 1881.52C1582.05 1929.16 1510.29 1964.95 1435.64 1988.88L1399.49 1998.94 1400.53 1987.68C1399.67 1882.59 1313.78 1798.09 1208.69 1798.95 1103.59 1799.81 1019.1 1885.7 1019.96 1990.79L1021.22 2002.35 975.925 1989.98C901.159 1966.42 829.231 1930.98 763.007 1883.65Z" stroke="#FFFFFF" stroke-width="20.625" stroke-linecap="round" stroke-miterlimit="8" fill="#357493" fill-rule="evenodd"/><path d="M1923.98 1042.63C1948.47 1120.26 1959.89 1199.63 1959.13 1278.02L1957.32 1315.5 1946.96 1310.97C1846.92 1278.75 1739.71 1333.73 1707.49 1433.77 1675.28 1533.8 1730.25 1641.02 1830.29 1673.23L1841.66 1675.67 1815.68 1714.78C1769.81 1778.35 1713.56 1835.49 1647.81 1883.48L1262.12 1355.1 1276.15 1343.52C1294.16 1325.5 1305.3 1300.62 1305.3 1273.14 1305.3 1266.27 1304.61 1259.56 1303.28 1253.08L1299.14 1239.74Z" stroke="#FFFFFF" stroke-width="20.625" stroke-linecap="round" stroke-miterlimit="8" fill="#3C85AA" fill-rule="evenodd"/><path d="M0 516.337 620.772 725.481 625.306 712.227C628.055 706.213 631.447 700.384 635.498 694.834 651.702 672.637 675.369 659.107 700.534 655.179L718.813 654.094 718.813 0C637.415 0 558.288 12.9867 483.759 37.2881L439.717 53.5608 447.466 62.2337C509.271 147.236 490.466 266.246 405.464 328.051 320.462 389.856 201.452 371.051 139.647 286.049L133.948 276.284 110.384 305.49C63.5589 368.36 25.9882 439.2 0 516.337Z" stroke="#FFFFFF" stroke-width="20.625" stroke-linecap="round" stroke-miterlimit="8" fill="#4E99BE" fill-rule="evenodd" transform="matrix(0.807705 0.589587 0.589587 -0.807705 183.522 1459.66)"/><path d="M1207.5 529.5 1207.5 1174.18 1206.77 1174.11C1158.66 1174.11 1118.53 1208.2 1109.24 1253.53L1109.15 1254.5 488.5 1045.56C514.495 968.467 552.075 897.665 598.912 834.828L622.483 805.637 628.183 815.397C690.004 900.354 809.046 919.149 894.07 857.377 979.094 795.605 997.903 676.658 936.083 591.701L928.332 583.032 972.385 566.768C1046.93 542.48 1126.08 529.5 1207.5 529.5Z" stroke="#FFFFFF" stroke-width="20.625" stroke-linecap="round" stroke-miterlimit="8" fill="#65A7C7" fill-rule="evenodd"/><path d="M719 0C637.581 0 558.434 12.979 483.885 37.266L439.832 53.5291 447.583 62.1969C509.403 147.149 490.594 266.089 405.57 327.857 320.546 389.625 201.504 370.831 139.683 285.88L133.983 276.12 110.412 305.31C63.5755 368.142 25.995 438.94 0 516.031L620.779 725 620.882 723.986C630.164 678.661 670.302 644.566 718.409 644.566L719 644.626Z" stroke="#FFFFFF" stroke-width="20.625" stroke-linecap="round" stroke-miterlimit="8" fill="#27576E" fill-rule="evenodd" transform="matrix(-1 0 0 1 1924.5 529.5)"/><text fill="#FFFFFF" font-family="Arial,Arial_MSFontService,sans-serif" font-weight="700" font-size="48" transform="matrix(1 0 0 1 843.517 990)">Interne mål <tspan font-size="48" x="473.927" y="-19">Marked og </tspan><tspan font-size="48" x="441.568" y="39">efterspørgsel</tspan><tspan font-size="48" x="586.593" y="419">Teknol</tspan>og<tspan font-size="48" x="799.718" y="419">i</tspan><tspan font-size="48" x="157.73" y="696">Leverandører og </tspan><tspan font-size="48" x="117.052" y="754">samarbejdspartnere</tspan><tspan font-size="48" x="-149.79" y="341">Bæredygtighed </tspan><tspan font-size="48" x="-62.4318" y="399">og grøn </tspan><tspan font-size="48" x="-86.4943" y="456">omstilling</tspan></text><g clip-path="url(#clip1)"><g clip-path="url(#clip2)"><g clip-path="url(#clip3)"><path d="M26.5261 252.48 46.2081 257.297 65.8895 252.48 65.8895 242.828 46.2081 238.012 26.5261 242.828Z" fill="#65A7C7" transform="matrix(1 0 0 1.02438 634 540.16)"/><path d="M87.0539 252.48 106.736 257.297 126.418 252.48 126.418 242.828 106.736 238.012 87.0539 242.828Z" fill="#65A7C7" transform="matrix(1 0 0 1.02438 634 540.16)"/><path d="M147.582 252.48 167.264 257.297 186.946 252.48 186.946 242.828 167.264 238.012 147.582 242.828Z" fill="#65A7C7" transform="matrix(1 0 0 1.02438 634 540.16)"/><path d="M208.11 252.48 227.792 257.297 247.474 252.48 247.474 242.828 227.792 238.012 208.11 242.828Z" fill="#30708F" transform="matrix(1 0 0 1.02438 634 540.16)"/><path d="M65.8895 242.828 26.5261 242.828 26.5261 203.886C26.5261 200.925 28.9268 198.524 31.8884 198.524L60.5283 198.524C63.4899 198.524 65.8906 200.925 65.8906 203.886L65.8906 242.828Z" fill="#7CB0C9" transform="matrix(1 0 0 1.02438 634 540.16)"/><path d="M126.418 242.828 87.0539 242.828 87.0539 174.62C87.0539 171.658 89.4546 169.258 92.4161 169.258L121.056 169.258C124.017 169.258 126.418 171.658 126.418 174.62Z" fill="#7FB9D5" transform="matrix(1 0 0 1.02438 634 540.16)"/><path d="M186.946 242.828 147.582 242.828 147.582 145.353C147.582 142.391 149.983 139.99 152.944 139.99L181.584 139.99C184.546 139.99 186.947 142.391 186.947 145.353L186.947 242.828Z" fill="#93C1D7" transform="matrix(1 0 0 1.02438 634 540.16)"/><path d="M247.474 242.828 208.11 242.828 208.11 116.086C208.11 113.124 210.511 110.723 213.472 110.723L242.112 110.723C245.074 110.723 247.474 113.124 247.474 116.086L247.474 242.828Z" fill="#4E99BD" transform="matrix(1 0 0 1.02438 634 540.16)"/><path d="M225.812 62.9451 221.089 15.8915C220.924 14.2544 219.338 13.1499 217.745 13.5646L171.948 25.4922C169.732 26.0696 169.213 28.9803 171.094 30.2877L183.057 38.6056C183.057 38.6056 152.375 98.4409 41.5174 132.652L41.5174 135.643C71.9341 135.809 151.446 127.11 201.315 60.0986L209.645 57.0921 221.614 65.4137C223.494 66.7206 226.041 65.2227 225.812 62.9451Z" fill="#4F89A5" transform="matrix(1 0 0 1.02438 634 540.16)"/><path d="M204.843 53.7002C203.649 52.8574 202.008 53.1303 201.136 54.3023 151.268 121.314 87.2904 129.753 43.3316 132.807 42.6841 132.851 42.0916 132.787 41.5511 132.642L41.5121 132.655C35.8421 134.443 37.4304 142.869 43.3616 142.456 87.7827 139.366 161.109 123.502 209.645 57.0926Z" fill="#A1C7D9" transform="matrix(1 0 0 1.02438 634 540.16)"/><path d="M269.978 260.523 4.0217 260.523C1.8008 260.523-7.12973e-15 258.722-7.12973e-15 256.501-7.12973e-15 254.281 1.80027 252.48 4.0217 252.48L269.979 252.48C272.2 252.48 274 254.281 274 256.501 274 258.722 272.199 260.523 269.978 260.523Z" fill="#5391AF" transform="matrix(1 0 0 1.02438 634 540.16)"/></g></g></g><g clip-path="url(#clip4)"><g clip-path="url(#clip5)"><g clip-path="url(#clip6)"><path d="M111 166.5 92.5 166.5C89.9456 166.5 87.875 168.571 87.875 171.125L87.875 198.875 115.625 198.875 115.625 171.125C115.625 168.571 113.554 166.5 111 166.5Z" fill="#65A7C7" transform="matrix(1 0 0 1.00338 1474 561)"/><path d="M143.375 157.25 124.875 157.25C122.321 157.25 120.25 159.321 120.25 161.875L120.25 198.875 148 198.875 148 161.875C148 159.321 145.929 157.25 143.375 157.25Z" fill="#2E627C" transform="matrix(1 0 0 1.00338 1474 561)"/><path d="M175.75 148 157.25 148C154.696 148 152.625 150.071 152.625 152.625L152.625 198.875 180.375 198.875 180.375 152.625C180.375 150.071 178.304 148 175.75 148Z" fill="#92C1D7" transform="matrix(1 0 0 1.00338 1474 561)"/><path d="M208.125 124.875 189.625 124.875C187.071 124.875 185 126.946 185 129.5L185 198.875 212.75 198.875 212.75 129.5C212.75 126.946 210.679 124.875 208.125 124.875Z" fill="#4D778B" transform="matrix(1 0 0 1.00338 1474 561)"/><path d="M286.75 148C286.664 71.2874 224.407 9.16851 147.695 9.25384 146.255 9.25546 144.814 9.27946 143.375 9.32585L143.375 50.9384C143.375 50.9619 143.394 50.9809 143.418 50.9809 143.418 50.9809 143.42 50.9809 143.421 50.9809 197.006 48.4561 242.492 89.8485 245.017 143.433 246.38 172.347 234.775 200.363 213.367 219.845L213.367 219.905C213.367 219.905 245.208 247.013 246.111 246.109 272.216 220.145 286.849 184.818 286.75 148Z" fill="#4D778B" transform="matrix(1 0 0 1.00338 1474 561)"/><path d="M46.6732 53.2134C46.6732 53.2134 78.4173 80.2234 79.3206 79.3206 98.6355 59.9132 125.278 49.6133 152.625 50.9818L152.625 9.32492C112.614 7.89437 73.9528 23.9088 46.6732 53.2134Z" fill="#65A7C7" transform="matrix(1 0 0 1.00338 1474 561)"/><path d="M82.6658 76.1275 53.2134 46.675C13.1055 84.1972-1.09642 141.845 16.9918 193.704 17.6601 195.61 56.6974 181.152 56.295 179.996 43.467 143.217 53.847 102.332 82.6658 76.1275Z" fill="#2E627C" transform="matrix(1 0 0 1.00338 1474 561)"/><path d="M219.872 213.334C183.782 253.028 122.347 255.949 82.6538 219.859 69.5211 207.918 59.9109 192.608 54.8673 175.59L15.54 189.318C38.361 262.472 116.165 303.276 189.319 280.455 212.244 273.303 232.921 260.324 249.327 242.787Z" fill="#92C1D7" transform="matrix(1 0 0 1.00338 1474 561)"/><path d="M101.745 148C99.1803 147.922 97.1638 145.78 97.2415 143.214 97.3012 141.242 98.5999 139.523 100.481 138.926L164.465 120.647 196.19 97.9876C198.304 96.5543 201.18 97.106 202.613 99.2206 203.997 101.262 203.536 104.03 201.564 105.512 201.564 105.512 168.282 129.175 167.771 129.324 167.769 129.324 102.17 148 101.745 148Z" fill="#4884A1" transform="matrix(1 0 0 1.00338 1474 561)"/><path d="M217.375 198.875 78.625 198.875C76.0706 198.787 74.0717 196.644 74.16 194.09 74.2447 191.66 76.195 189.709 78.625 189.625L217.375 189.625C219.929 189.713 221.928 191.856 221.84 194.41 221.756 196.84 219.805 198.791 217.375 198.875Z" fill="#4884A1" transform="matrix(1 0 0 1.00338 1474 561)"/><path d="M111 143.375C111 148.484 106.859 152.625 101.75 152.625 96.6412 152.625 92.5 148.484 92.5 143.375 92.5 138.266 96.6412 134.125 101.75 134.125 106.859 134.125 111 138.266 111 143.375Z" fill="#65A7C7" transform="matrix(1 0 0 1.00338 1474 561)"/><path d="M143.375 134.152C143.375 139.261 139.234 143.402 134.125 143.402 129.016 143.402 124.875 139.261 124.875 134.152 124.875 129.044 129.016 124.902 134.125 124.902 139.234 124.902 143.375 129.044 143.375 134.152Z" fill="#2E627C" transform="matrix(1 0 0 1.00338 1474 561)"/><path d="M175.75 124.902C175.75 130.011 171.609 134.152 166.5 134.152 161.391 134.152 157.25 130.011 157.25 124.902 157.25 119.794 161.391 115.652 166.5 115.652 171.609 115.652 175.75 119.794 175.75 124.902Z" fill="#92C1D7" transform="matrix(1 0 0 1.00338 1474 561)"/><path d="M208.125 101.777C208.125 106.886 203.984 111.027 198.875 111.027 193.766 111.027 189.625 106.886 189.625 101.777 189.625 96.6685 193.766 92.5273 198.875 92.5273 203.984 92.5273 208.125 96.6685 208.125 101.777Z" fill="#4D778B" transform="matrix(1 0 0 1.00338 1474 561)"/></g></g></g><g clip-path="url(#clip7)"><g clip-path="url(#clip8)"><g clip-path="url(#clip9)"><path d="M1871.36 1616.37C1871.36 1623.9 1877.46 1630.01 1885 1630.01L1903.2 1630.01C1910.73 1630.01 1916.84 1623.9 1916.84 1616.37L1916.84 1589.08 1871.36 1589.08Z" fill="#49809B"/><path d="M1849.92 1539.76C1845.95 1537.19 1842.19 1534.29 1838.72 1531.08 1835.75 1542.5 1824.53 1549.74 1812.9 1547.74 1801.27 1545.74 1793.11 1535.17 1794.12 1523.42 1795.13 1511.66 1804.98 1502.64 1816.78 1502.66 1817.47 1502.66 1818.14 1502.8 1818.8 1502.86 1814.49 1492.73 1812.27 1481.83 1812.27 1470.82L1806.48 1470.82 1803.34 1485.77C1803.03 1487.26 1801.99 1488.49 1800.58 1489.06 1799.16 1489.62 1797.56 1489.44 1796.31 1488.58L1783.74 1479.92 1770.1 1493.56 1778.74 1506.13C1779.6 1507.38 1779.78 1508.98 1779.22 1510.4 1778.65 1511.81 1777.42 1512.85 1775.93 1513.16L1761 1516.3 1761 1534.5 1775.95 1537.64C1777.43 1537.95 1778.67 1538.99 1779.24 1540.4 1779.8 1541.81 1779.62 1543.42 1778.76 1544.67L1770.1 1557.24 1783.74 1570.88 1796.31 1562.24C1797.56 1561.38 1799.17 1561.19 1800.58 1561.76 1802 1562.32 1803.03 1563.56 1803.35 1565.05L1806.48 1579.98 1824.68 1579.98 1827.82 1565.03C1828.13 1563.54 1829.17 1562.3 1830.58 1561.74 1831.99 1561.17 1833.6 1561.35 1834.85 1562.22L1847.42 1570.88 1861.7 1556.6C1860.2 1549.63 1855.96 1543.56 1849.92 1539.76Z" fill="#74A3B9"/><path d="M1975.97 1470.82C1975.96 1431.57 1948.1 1397.84 1909.55 1390.43 1871 1383.02 1832.62 1404.01 1818.07 1440.47 1803.51 1476.92 1816.87 1518.58 1849.92 1539.76 1857.5 1544.45 1862.15 1552.69 1862.26 1561.6L1862.26 1579.98C1862.26 1587.51 1868.37 1593.62 1875.91 1593.62L1912.29 1593.62C1919.83 1593.62 1925.94 1587.51 1925.94 1579.98L1925.94 1561.98C1926.05 1552.86 1930.8 1544.42 1938.54 1539.59 1961.89 1524.51 1975.98 1498.61 1975.97 1470.82Z" fill="#8CBFD7"/><path d="M2004.14 1422.7 2018.44 1411.98 2002.06 1390.14 1987.76 1400.87C1984.82 1403.07 1980.84 1403.29 1977.67 1401.41 1974.51 1399.54 1972.78 1395.94 1973.3 1392.3L1975.83 1374.62 1948.81 1370.76 1946.29 1388.44C1945.77 1392.09 1943.1 1395.06 1939.54 1395.97 1935.98 1396.89 1932.21 1395.56 1930 1392.62L1919.28 1378.32 1897.45 1394.69 1908.17 1408.99C1910.38 1411.94 1910.59 1415.92 1908.72 1419.08 1906.84 1422.25 1903.25 1423.97 1899.61 1423.45L1881.92 1420.93 1878.06 1447.94 1895.75 1450.47C1899.39 1450.99 1902.36 1453.65 1903.28 1457.22 1904.19 1460.78 1902.86 1464.55 1899.92 1466.75L1885.62 1477.48 1902 1499.31 1916.29 1488.59C1919.24 1486.38 1923.22 1486.16 1926.39 1488.04 1929.55 1489.91 1931.28 1493.51 1930.76 1497.15L1928.21 1514.84 1955.23 1518.7 1957.78 1501.01C1958.3 1497.36 1960.96 1494.39 1964.52 1493.48 1968.09 1492.57 1971.85 1493.89 1974.06 1496.83L1984.78 1511.13 2006.61 1494.76 1995.89 1480.46C1993.68 1477.52 1993.46 1473.53 1995.34 1470.37 1997.21 1467.2 2000.81 1465.48 2004.45 1466L2022.14 1468.52 2026 1441.51 2008.31 1438.98C2004.67 1438.46 2001.7 1435.8 2000.79 1432.23 1999.87 1428.67 2001.2 1424.91 2004.14 1422.7ZM1952.03 1476.56C1934.45 1476.56 1920.19 1462.31 1920.19 1444.72 1920.19 1427.14 1934.45 1412.89 1952.03 1412.89 1969.62 1412.89 1983.87 1427.14 1983.87 1444.72 1983.87 1462.31 1969.62 1476.56 1952.03 1476.56Z" fill="#66ADCF"/><path d="M1871.36 1602.72 1916.84 1602.72 1916.84 1611.82 1871.36 1611.82Z" fill="#A0BCC9"/><path d="M1889.55 1566.33 1898.65 1566.33 1898.65 1579.98 1889.55 1579.98Z" fill="#47788F"/><path d="M1898.65 1557.24 1889.55 1557.24C1889.55 1545.21 1882.13 1534.43 1870.9 1530.13 1848.52 1521.37 1832.97 1500.77 1830.7 1476.84 1828.43 1452.91 1839.82 1429.74 1860.16 1416.94L1864.99 1424.63C1847.55 1435.61 1837.78 1455.47 1839.72 1475.98 1841.66 1496.49 1854.99 1514.16 1874.18 1521.66 1888.93 1527.3 1898.66 1541.45 1898.65 1557.24Z" fill="#47788F"/><path d="M1985.07 1534.5 2007.81 1534.5C2010.32 1534.5 2012.36 1536.53 2012.36 1539.04 2012.36 1541.56 2010.32 1543.59 2007.81 1543.59L1985.07 1543.59C1982.55 1543.59 1980.52 1541.56 1980.52 1539.04 1980.52 1536.53 1982.55 1534.5 1985.07 1534.5Z" fill="#47788F"/><path d="M1975.97 1561.79C1977.58 1559.86 1980.44 1559.6 1982.37 1561.2L2002.68 1578.12C2004.61 1579.73 2004.87 1582.6 2003.26 1584.53 2001.65 1586.46 1998.78 1586.72 1996.85 1585.11L1976.55 1568.19C1974.62 1566.59 1974.36 1563.72 1975.97 1561.79Z" fill="#47788F"/><path d="M1957.78 1570.88C1960.29 1570.88 1962.32 1572.92 1962.32 1575.43L1962.32 1598.17C1962.32 1600.68 1960.29 1602.72 1957.78 1602.72 1955.26 1602.72 1953.23 1600.68 1953.23 1598.17L1953.23 1575.43C1953.23 1572.92 1955.26 1570.88 1957.78 1570.88Z" fill="#47788F"/><path d="M1765.51 1442.56 1793.07 1435.67C1795.51 1435.06 1797.98 1436.54 1798.58 1438.98 1799.19 1441.42 1797.71 1443.88 1795.27 1444.49L1767.71 1451.38C1765.27 1451.99 1762.81 1450.5 1762.2 1448.07 1761.59 1445.63 1763.07 1443.17 1765.51 1442.56Z" fill="#47788F"/><path d="M1771.29 1393.5C1772.75 1391.46 1775.59 1390.99 1777.63 1392.44L1802.07 1409.9C1804.11 1411.36 1804.59 1414.2 1803.13 1416.24 1801.67 1418.28 1798.83 1418.76 1796.78 1417.3L1772.35 1399.84C1770.31 1398.38 1769.83 1395.54 1771.29 1393.5Z" fill="#47788F"/><path d="M1812.03 1366.2C1814.46 1365.58 1816.94 1367.05 1817.56 1369.48L1824.61 1397.06C1825.23 1399.49 1823.76 1401.97 1821.33 1402.59 1818.89 1403.21 1816.42 1401.74 1815.8 1399.31L1808.75 1371.74C1808.12 1369.3 1809.59 1366.82 1812.03 1366.2Z" fill="#47788F"/></g></g></g><g clip-path="url(#clip10)"><g clip-path="url(#clip11)"><g clip-path="url(#clip12)"><path d="M1197.91 1950.31 1096.97 1950.31 1096.97 1873.28C1096.97 1870.35 1099.35 1867.97 1102.28 1867.97L1192.59 1867.97C1195.53 1867.97 1197.91 1870.35 1197.91 1873.28Z" fill="#65A7C7"/><path d="M1253.69 1974.22 1253.69 1934.38 1226 1886.56C1225.05 1884.92 1223.3 1883.91 1221.41 1883.91L1197.91 1883.91 1197.91 1950.31 1096.97 1950.31 1096.97 1974.22C1096.97 1977.15 1099.35 1979.53 1102.28 1979.53L1248.38 1979.53C1251.31 1979.53 1253.69 1977.15 1253.69 1974.22Z" fill="#547483"/><path d="M1328.06 1899.84C1328.06 1908.65 1320.93 1915.78 1312.12 1915.78 1303.32 1915.78 1296.19 1908.65 1296.19 1899.84 1296.19 1891.04 1303.32 1883.91 1312.12 1883.91 1320.93 1883.91 1328.06 1891.04 1328.06 1899.84Z" fill="#47778D"/><path d="M1320.09 1915.78 1304.16 1915.78C1295.35 1915.78 1288.22 1922.92 1288.22 1931.72L1288.22 1939.69C1288.22 1942.62 1290.6 1945 1293.53 1945L1330.72 1945C1333.65 1945 1336.03 1942.62 1336.03 1939.69L1336.03 1931.72C1336.03 1922.92 1328.9 1915.78 1320.09 1915.78Z" fill="#47778D"/><path d="M1247.53 1923.75 1216.5 1923.75C1215.03 1923.75 1213.84 1922.56 1213.84 1921.09L1213.84 1897.19C1213.84 1895.72 1215.03 1894.53 1216.5 1894.53L1230.63 1894.53Z" fill="#65A7C7"/><path d="M1155.41 2043.28 1131.5 2043.28C1128.56 2043.28 1126.19 2045.66 1126.19 2048.59L1126.19 2107.03 1155.41 2107.03Z" fill="#47809B"/><path d="M1197.91 2107.03 1155.41 2107.03 1155.41 2022.03C1155.41 2019.1 1157.78 2016.72 1160.72 2016.72L1192.59 2016.72C1195.53 2016.72 1197.91 2019.1 1197.91 2022.03Z" fill="#528299"/><path d="M1272.28 2053.91 1272.28 1992.81C1272.28 1991.35 1273.47 1990.16 1274.94 1990.16L1280.25 1990.16C1281.72 1990.16 1282.91 1991.35 1282.91 1992.81L1282.91 2053.91Z" fill="#457C97"/><path d="M1290.88 2107.03 1197.91 2107.03 1197.91 2051.25 1211.97 2037.19C1213.64 2035.52 1216.5 2036.7 1216.5 2039.07L1216.5 2051.25 1230.56 2037.19C1232.23 2035.52 1235.09 2036.7 1235.09 2039.07L1235.09 2051.25 1249.15 2037.19C1250.83 2035.52 1253.69 2036.7 1253.69 2039.07L1253.69 2051.25 1267.75 2037.19C1269.42 2035.52 1272.28 2036.7 1272.28 2039.07L1272.28 2051.25 1286.34 2037.19C1288.01 2035.52 1290.88 2036.7 1290.88 2039.07Z" fill="#8EB7CB"/><path d="M1336.03 2107.03 1290.88 2107.03 1290.88 2061.88 1330.72 2061.88C1333.65 2061.88 1336.03 2064.25 1336.03 2067.19Z" fill="#47809B"/><path d="M1181.97 2091.09 1171.34 2091.09C1169.88 2091.09 1168.69 2092.28 1168.69 2093.75L1168.69 2107.03 1184.62 2107.03 1184.62 2093.75C1184.62 2092.28 1183.44 2091.09 1181.97 2091.09Z" fill="#8FBCD1"/><path d="M1306.81 2093.75 1320.09 2093.75 1320.09 2107.03 1306.81 2107.03Z" fill="#8FBCD1"/><path d="M1104.94 2093.75 1110.25 2093.75 1110.25 2107.03 1104.94 2107.03Z" fill="#558BA5"/><path d="M1107.59 2096.41C1101.06 2096.41 1096.45 2090 1098.51 2083.81L1105.07 2064.12C1105.88 2061.7 1109.3 2061.7 1110.11 2064.12L1116.67 2083.81C1118.74 2090 1114.13 2096.41 1107.59 2096.41Z" fill="#547483"/><path d="M1197.91 1894.53 1096.97 1894.53 1096.97 1873.28C1096.97 1870.35 1099.35 1867.97 1102.28 1867.97L1192.59 1867.97C1195.53 1867.97 1197.91 1870.35 1197.91 1873.28Z" fill="#47809B"/><path d="M1134.16 1867.97 1134.16 1909.37C1134.16 1911.74 1137.02 1912.92 1138.69 1911.25L1145.56 1904.38C1146.6 1903.34 1148.28 1903.34 1149.32 1904.38L1156.18 1911.25C1157.86 1912.92 1160.72 1911.74 1160.72 1909.37L1160.72 1867.97Z" fill="#547483"/><path d="M1139.47 1979.53C1139.47 1988.33 1132.33 1995.47 1123.53 1995.47 1114.73 1995.47 1107.59 1988.33 1107.59 1979.53 1107.59 1970.73 1114.73 1963.59 1123.53 1963.59 1132.33 1963.59 1139.47 1970.73 1139.47 1979.53Z" fill="#8FBCD1"/><path d="M1171.34 1979.53C1171.34 1988.33 1164.21 1995.47 1155.41 1995.47 1146.6 1995.47 1139.47 1988.33 1139.47 1979.53 1139.47 1970.73 1146.6 1963.59 1155.41 1963.59 1164.21 1963.59 1171.34 1970.73 1171.34 1979.53Z" fill="#8FBCD1"/><path d="M1235.09 1979.53C1235.09 1988.33 1227.96 1995.47 1219.16 1995.47 1210.35 1995.47 1203.22 1988.33 1203.22 1979.53 1203.22 1970.73 1210.35 1963.59 1219.16 1963.59 1227.96 1963.59 1235.09 1970.73 1235.09 1979.53Z" fill="#8FBCD1"/><path d="M1160.72 1979.53C1160.72 1982.47 1158.34 1984.84 1155.41 1984.84 1152.47 1984.84 1150.09 1982.47 1150.09 1979.53 1150.09 1976.6 1152.47 1974.22 1155.41 1974.22 1158.34 1974.22 1160.72 1976.6 1160.72 1979.53Z" fill="#457C97"/><path d="M1224.47 1979.53C1224.47 1982.47 1222.09 1984.84 1219.16 1984.84 1216.22 1984.84 1213.84 1982.47 1213.84 1979.53 1213.84 1976.6 1216.22 1974.22 1219.16 1974.22 1222.09 1974.22 1224.47 1976.6 1224.47 1979.53Z" fill="#457C97"/><path d="M1128.84 1979.53C1128.84 1982.47 1126.47 1984.84 1123.53 1984.84 1120.6 1984.84 1118.22 1982.47 1118.22 1979.53 1118.22 1976.6 1120.6 1974.22 1123.53 1974.22 1126.47 1974.22 1128.84 1976.6 1128.84 1979.53Z" fill="#457C97"/><path d="M1110.25 1939.69C1110.25 1941.15 1109.06 1942.34 1107.59 1942.34 1106.13 1942.34 1104.94 1941.15 1104.94 1939.69 1104.94 1938.22 1106.13 1937.03 1107.59 1937.03 1109.06 1937.03 1110.25 1938.22 1110.25 1939.69Z" fill="#47809B"/><path d="M1120.88 1939.69C1120.88 1941.15 1119.69 1942.34 1118.22 1942.34 1116.75 1942.34 1115.56 1941.15 1115.56 1939.69 1115.56 1938.22 1116.75 1937.03 1118.22 1937.03 1119.69 1937.03 1120.88 1938.22 1120.88 1939.69Z" fill="#47809B"/><path d="M1131.5 1939.69C1131.5 1941.15 1130.31 1942.34 1128.84 1942.34 1127.38 1942.34 1126.19 1941.15 1126.19 1939.69 1126.19 1938.22 1127.38 1937.03 1128.84 1937.03 1130.31 1937.03 1131.5 1938.22 1131.5 1939.69Z" fill="#47809B"/><path d="M1219.16 1939.69 1208.53 1939.69C1207.07 1939.69 1205.88 1938.5 1205.88 1937.03 1205.88 1935.56 1207.07 1934.38 1208.53 1934.38L1219.16 1934.38C1220.62 1934.38 1221.81 1935.56 1221.81 1937.03 1221.81 1938.5 1220.62 1939.69 1219.16 1939.69Z" fill="#558BA5"/><path d="M1211.19 2069.84 1208.53 2069.84C1207.07 2069.84 1205.88 2068.66 1205.88 2067.19 1205.88 2065.72 1207.07 2064.53 1208.53 2064.53L1211.19 2064.53C1212.65 2064.53 1213.84 2065.72 1213.84 2067.19 1213.84 2068.66 1212.65 2069.84 1211.19 2069.84Z" fill="#42819F"/><path d="M1224.47 2069.84 1221.81 2069.84C1220.35 2069.84 1219.16 2068.66 1219.16 2067.19 1219.16 2065.72 1220.35 2064.53 1221.81 2064.53L1224.47 2064.53C1225.94 2064.53 1227.12 2065.72 1227.12 2067.19 1227.12 2068.66 1225.94 2069.84 1224.47 2069.84Z" fill="#42819F"/><path d="M1237.75 2069.84 1235.09 2069.84C1233.63 2069.84 1232.44 2068.66 1232.44 2067.19 1232.44 2065.72 1233.63 2064.53 1235.09 2064.53L1237.75 2064.53C1239.22 2064.53 1240.41 2065.72 1240.41 2067.19 1240.41 2068.66 1239.22 2069.84 1237.75 2069.84Z" fill="#42819F"/><path d="M1251.03 2069.84 1248.38 2069.84C1246.91 2069.84 1245.72 2068.66 1245.72 2067.19 1245.72 2065.72 1246.91 2064.53 1248.38 2064.53L1251.03 2064.53C1252.5 2064.53 1253.69 2065.72 1253.69 2067.19 1253.69 2068.66 1252.5 2069.84 1251.03 2069.84Z" fill="#42819F"/><path d="M1264.31 2069.84 1261.66 2069.84C1260.19 2069.84 1259 2068.66 1259 2067.19 1259 2065.72 1260.19 2064.53 1261.66 2064.53L1264.31 2064.53C1265.78 2064.53 1266.97 2065.72 1266.97 2067.19 1266.97 2068.66 1265.78 2069.84 1264.31 2069.84Z" fill="#42819F"/><path d="M1277.59 2069.84 1274.94 2069.84C1273.47 2069.84 1272.28 2068.66 1272.28 2067.19 1272.28 2065.72 1273.47 2064.53 1274.94 2064.53L1277.59 2064.53C1279.06 2064.53 1280.25 2065.72 1280.25 2067.19 1280.25 2068.66 1279.06 2069.84 1277.59 2069.84Z" fill="#42819F"/><path d="M1211.19 2080.47 1208.53 2080.47C1207.07 2080.47 1205.88 2079.28 1205.88 2077.81 1205.88 2076.34 1207.07 2075.16 1208.53 2075.16L1211.19 2075.16C1212.65 2075.16 1213.84 2076.34 1213.84 2077.81 1213.84 2079.28 1212.65 2080.47 1211.19 2080.47Z" fill="#42819F"/><path d="M1224.47 2080.47 1221.81 2080.47C1220.35 2080.47 1219.16 2079.28 1219.16 2077.81 1219.16 2076.34 1220.35 2075.16 1221.81 2075.16L1224.47 2075.16C1225.94 2075.16 1227.12 2076.34 1227.12 2077.81 1227.12 2079.28 1225.94 2080.47 1224.47 2080.47Z" fill="#42819F"/><path d="M1237.75 2080.47 1235.09 2080.47C1233.63 2080.47 1232.44 2079.28 1232.44 2077.81 1232.44 2076.34 1233.63 2075.16 1235.09 2075.16L1237.75 2075.16C1239.22 2075.16 1240.41 2076.34 1240.41 2077.81 1240.41 2079.28 1239.22 2080.47 1237.75 2080.47Z" fill="#42819F"/><path d="M1251.03 2080.47 1248.38 2080.47C1246.91 2080.47 1245.72 2079.28 1245.72 2077.81 1245.72 2076.34 1246.91 2075.16 1248.38 2075.16L1251.03 2075.16C1252.5 2075.16 1253.69 2076.34 1253.69 2077.81 1253.69 2079.28 1252.5 2080.47 1251.03 2080.47Z" fill="#42819F"/><path d="M1264.31 2080.47 1261.66 2080.47C1260.19 2080.47 1259 2079.28 1259 2077.81 1259 2076.34 1260.19 2075.16 1261.66 2075.16L1264.31 2075.16C1265.78 2075.16 1266.97 2076.34 1266.97 2077.81 1266.97 2079.28 1265.78 2080.47 1264.31 2080.47Z" fill="#42819F"/><path d="M1277.59 2080.47 1274.94 2080.47C1273.47 2080.47 1272.28 2079.28 1272.28 2077.81 1272.28 2076.34 1273.47 2075.16 1274.94 2075.16L1277.59 2075.16C1279.06 2075.16 1280.25 2076.34 1280.25 2077.81 1280.25 2079.28 1279.06 2080.47 1277.59 2080.47Z" fill="#42819F"/><path d="M1211.19 2091.09 1208.53 2091.09C1207.07 2091.09 1205.88 2089.91 1205.88 2088.44 1205.88 2086.97 1207.07 2085.78 1208.53 2085.78L1211.19 2085.78C1212.65 2085.78 1213.84 2086.97 1213.84 2088.44 1213.84 2089.91 1212.65 2091.09 1211.19 2091.09Z" fill="#42819F"/><path d="M1224.47 2091.09 1221.81 2091.09C1220.35 2091.09 1219.16 2089.91 1219.16 2088.44 1219.16 2086.97 1220.35 2085.78 1221.81 2085.78L1224.47 2085.78C1225.94 2085.78 1227.12 2086.97 1227.12 2088.44 1227.12 2089.91 1225.94 2091.09 1224.47 2091.09Z" fill="#42819F"/><path d="M1237.75 2091.09 1235.09 2091.09C1233.63 2091.09 1232.44 2089.91 1232.44 2088.44 1232.44 2086.97 1233.63 2085.78 1235.09 2085.78L1237.75 2085.78C1239.22 2085.78 1240.41 2086.97 1240.41 2088.44 1240.41 2089.91 1239.22 2091.09 1237.75 2091.09Z" fill="#42819F"/><path d="M1171.34 2032.66 1168.69 2032.66C1167.22 2032.66 1166.03 2031.47 1166.03 2030 1166.03 2028.53 1167.22 2027.34 1168.69 2027.34L1171.34 2027.34C1172.81 2027.34 1174 2028.53 1174 2030 1174 2031.47 1172.81 2032.66 1171.34 2032.66Z" fill="#65A7C7"/><path d="M1184.62 2032.66 1181.97 2032.66C1180.5 2032.66 1179.31 2031.47 1179.31 2030 1179.31 2028.53 1180.5 2027.34 1181.97 2027.34L1184.62 2027.34C1186.09 2027.34 1187.28 2028.53 1187.28 2030 1187.28 2031.47 1186.09 2032.66 1184.62 2032.66Z" fill="#65A7C7"/><path d="M1171.34 2043.28 1168.69 2043.28C1167.22 2043.28 1166.03 2042.09 1166.03 2040.62 1166.03 2039.16 1167.22 2037.97 1168.69 2037.97L1171.34 2037.97C1172.81 2037.97 1174 2039.16 1174 2040.62 1174 2042.09 1172.81 2043.28 1171.34 2043.28Z" fill="#65A7C7"/><path d="M1184.62 2043.28 1181.97 2043.28C1180.5 2043.28 1179.31 2042.09 1179.31 2040.62 1179.31 2039.16 1180.5 2037.97 1181.97 2037.97L1184.62 2037.97C1186.09 2037.97 1187.28 2039.16 1187.28 2040.62 1187.28 2042.09 1186.09 2043.28 1184.62 2043.28Z" fill="#65A7C7"/><path d="M1171.34 2053.91 1168.69 2053.91C1167.22 2053.91 1166.03 2052.72 1166.03 2051.25 1166.03 2049.78 1167.22 2048.59 1168.69 2048.59L1171.34 2048.59C1172.81 2048.59 1174 2049.78 1174 2051.25 1174 2052.72 1172.81 2053.91 1171.34 2053.91Z" fill="#65A7C7"/><path d="M1144.78 2056.56 1136.81 2056.56C1135.35 2056.56 1134.16 2055.38 1134.16 2053.91 1134.16 2052.44 1135.35 2051.25 1136.81 2051.25L1144.78 2051.25C1146.25 2051.25 1147.44 2052.44 1147.44 2053.91 1147.44 2055.38 1146.25 2056.56 1144.78 2056.56Z" fill="#65A7C7"/><path d="M1144.78 2067.19 1136.81 2067.19C1135.35 2067.19 1134.16 2066 1134.16 2064.53 1134.16 2063.06 1135.35 2061.88 1136.81 2061.88L1144.78 2061.88C1146.25 2061.88 1147.44 2063.06 1147.44 2064.53 1147.44 2066 1146.25 2067.19 1144.78 2067.19Z" fill="#65A7C7"/><path d="M1144.78 2077.81 1136.81 2077.81C1135.35 2077.81 1134.16 2076.63 1134.16 2075.16 1134.16 2073.69 1135.35 2072.5 1136.81 2072.5L1144.78 2072.5C1146.25 2072.5 1147.44 2073.69 1147.44 2075.16 1147.44 2076.63 1146.25 2077.81 1144.78 2077.81Z" fill="#65A7C7"/><path d="M1144.78 2088.44 1136.81 2088.44C1135.35 2088.44 1134.16 2087.25 1134.16 2085.78 1134.16 2084.31 1135.35 2083.12 1136.81 2083.12L1144.78 2083.12C1146.25 2083.12 1147.44 2084.31 1147.44 2085.78 1147.44 2087.25 1146.25 2088.44 1144.78 2088.44Z" fill="#65A7C7"/><path d="M1144.78 2099.06 1136.81 2099.06C1135.35 2099.06 1134.16 2097.88 1134.16 2096.41 1134.16 2094.94 1135.35 2093.75 1136.81 2093.75L1144.78 2093.75C1146.25 2093.75 1147.44 2094.94 1147.44 2096.41 1147.44 2097.88 1146.25 2099.06 1144.78 2099.06Z" fill="#65A7C7"/><path d="M1184.62 2053.91 1181.97 2053.91C1180.5 2053.91 1179.31 2052.72 1179.31 2051.25 1179.31 2049.78 1180.5 2048.59 1181.97 2048.59L1184.62 2048.59C1186.09 2048.59 1187.28 2049.78 1187.28 2051.25 1187.28 2052.72 1186.09 2053.91 1184.62 2053.91Z" fill="#65A7C7"/><path d="M1171.34 2064.53 1168.69 2064.53C1167.22 2064.53 1166.03 2063.34 1166.03 2061.88 1166.03 2060.41 1167.22 2059.22 1168.69 2059.22L1171.34 2059.22C1172.81 2059.22 1174 2060.41 1174 2061.88 1174 2063.34 1172.81 2064.53 1171.34 2064.53Z" fill="#65A7C7"/><path d="M1184.62 2064.53 1181.97 2064.53C1180.5 2064.53 1179.31 2063.34 1179.31 2061.88 1179.31 2060.41 1180.5 2059.22 1181.97 2059.22L1184.62 2059.22C1186.09 2059.22 1187.28 2060.41 1187.28 2061.88 1187.28 2063.34 1186.09 2064.53 1184.62 2064.53Z" fill="#65A7C7"/><path d="M1171.34 2075.16 1168.69 2075.16C1167.22 2075.16 1166.03 2073.97 1166.03 2072.5 1166.03 2071.03 1167.22 2069.84 1168.69 2069.84L1171.34 2069.84C1172.81 2069.84 1174 2071.03 1174 2072.5 1174 2073.97 1172.81 2075.16 1171.34 2075.16Z" fill="#65A7C7"/><path d="M1184.62 2075.16 1181.97 2075.16C1180.5 2075.16 1179.31 2073.97 1179.31 2072.5 1179.31 2071.03 1180.5 2069.84 1181.97 2069.84L1184.62 2069.84C1186.09 2069.84 1187.28 2071.03 1187.28 2072.5 1187.28 2073.97 1186.09 2075.16 1184.62 2075.16Z" fill="#65A7C7"/><path d="M1251.03 2091.09 1248.38 2091.09C1246.91 2091.09 1245.72 2089.91 1245.72 2088.44 1245.72 2086.97 1246.91 2085.78 1248.38 2085.78L1251.03 2085.78C1252.5 2085.78 1253.69 2086.97 1253.69 2088.44 1253.69 2089.91 1252.5 2091.09 1251.03 2091.09Z" fill="#42819F"/><path d="M1264.31 2091.09 1261.66 2091.09C1260.19 2091.09 1259 2089.91 1259 2088.44 1259 2086.97 1260.19 2085.78 1261.66 2085.78L1264.31 2085.78C1265.78 2085.78 1266.97 2086.97 1266.97 2088.44 1266.97 2089.91 1265.78 2091.09 1264.31 2091.09Z" fill="#42819F"/><path d="M1277.59 2091.09 1274.94 2091.09C1273.47 2091.09 1272.28 2089.91 1272.28 2088.44 1272.28 2086.97 1273.47 2085.78 1274.94 2085.78L1277.59 2085.78C1279.06 2085.78 1280.25 2086.97 1280.25 2088.44 1280.25 2089.91 1279.06 2091.09 1277.59 2091.09Z" fill="#42819F"/><path d="M1325.41 2075.16 1301.5 2075.16C1300.03 2075.16 1298.84 2073.97 1298.84 2072.5 1298.84 2071.03 1300.03 2069.84 1301.5 2069.84L1325.41 2069.84C1326.87 2069.84 1328.06 2071.03 1328.06 2072.5 1328.06 2073.97 1326.87 2075.16 1325.41 2075.16Z" fill="#65A7C7"/><path d="M1325.41 2085.78 1301.5 2085.78C1300.03 2085.78 1298.84 2084.59 1298.84 2083.12 1298.84 2081.66 1300.03 2080.47 1301.5 2080.47L1325.41 2080.47C1326.87 2080.47 1328.06 2081.66 1328.06 2083.12 1328.06 2084.59 1326.87 2085.78 1325.41 2085.78Z" fill="#65A7C7"/><path d="M1325.41 2096.41 1301.5 2096.41C1300.03 2096.41 1298.84 2095.22 1298.84 2093.75 1298.84 2092.28 1300.03 2091.09 1301.5 2091.09L1325.41 2091.09C1326.87 2091.09 1328.06 2092.28 1328.06 2093.75 1328.06 2095.22 1326.87 2096.41 1325.41 2096.41Z" fill="#65A7C7"/><path d="M1134.16 2035.31C1132.69 2035.31 1131.5 2034.13 1131.5 2032.66L1131.5 2030C1131.5 2028.53 1132.69 2027.34 1134.16 2027.34 1135.62 2027.34 1136.81 2028.53 1136.81 2030L1136.81 2032.66C1136.81 2034.13 1135.62 2035.31 1134.16 2035.31Z" fill="#558BA5"/><path d="M1134.16 2022.03C1132.69 2022.03 1131.5 2020.84 1131.5 2019.38L1131.5 2016.72C1131.5 2015.25 1132.69 2014.06 1134.16 2014.06 1135.62 2014.06 1136.81 2015.25 1136.81 2016.72L1136.81 2019.38C1136.81 2020.84 1135.62 2022.03 1134.16 2022.03Z" fill="#558BA5"/><path d="M1134.16 2008.75C1132.69 2008.75 1131.5 2007.56 1131.5 2006.09L1131.5 2003.44C1131.5 2001.97 1132.69 2000.78 1134.16 2000.78 1135.62 2000.78 1136.81 2001.97 1136.81 2003.44L1136.81 2006.09C1136.81 2007.56 1135.62 2008.75 1134.16 2008.75Z" fill="#558BA5"/><path d="M1285.56 1897.19 1282.91 1897.19C1281.44 1897.19 1280.25 1896 1280.25 1894.53 1280.25 1893.06 1281.44 1891.88 1282.91 1891.88L1285.56 1891.88C1287.03 1891.88 1288.22 1893.06 1288.22 1894.53 1288.22 1896 1287.03 1897.19 1285.56 1897.19Z" fill="#558BA5"/><path d="M1272.28 1897.19 1269.62 1897.19C1268.16 1897.19 1266.97 1896 1266.97 1894.53 1266.97 1893.06 1268.16 1891.88 1269.62 1891.88L1272.28 1891.88C1273.75 1891.88 1274.94 1893.06 1274.94 1894.53 1274.94 1896 1273.75 1897.19 1272.28 1897.19Z" fill="#558BA5"/><path d="M1259 1897.19 1256.34 1897.19C1254.88 1897.19 1253.69 1896 1253.69 1894.53 1253.69 1893.06 1254.88 1891.88 1256.34 1891.88L1259 1891.88C1260.47 1891.88 1261.66 1893.06 1261.66 1894.53 1261.66 1896 1260.47 1897.19 1259 1897.19Z" fill="#558BA5"/><path d="M1245.72 1897.19 1243.06 1897.19C1241.6 1897.19 1240.41 1896 1240.41 1894.53 1240.41 1893.06 1241.6 1891.88 1243.06 1891.88L1245.72 1891.88C1247.19 1891.88 1248.38 1893.06 1248.38 1894.53 1248.38 1896 1247.19 1897.19 1245.72 1897.19Z" fill="#558BA5"/><path d="M1314.78 2053.91C1313.32 2053.91 1312.12 2052.72 1312.12 2051.25L1312.12 2048.59C1312.12 2047.12 1313.32 2045.94 1314.78 2045.94 1316.25 2045.94 1317.44 2047.12 1317.44 2048.59L1317.44 2051.25C1317.44 2052.72 1316.25 2053.91 1314.78 2053.91Z" fill="#558BA5"/><path d="M1314.78 2040.62C1313.32 2040.62 1312.12 2039.44 1312.12 2037.97L1312.12 2035.31C1312.12 2033.84 1313.32 2032.66 1314.78 2032.66 1316.25 2032.66 1317.44 2033.84 1317.44 2035.31L1317.44 2037.97C1317.44 2039.44 1316.25 2040.62 1314.78 2040.62Z" fill="#558BA5"/><path d="M1314.78 2027.34C1313.32 2027.34 1312.12 2026.16 1312.12 2024.69L1312.12 2022.03C1312.12 2020.56 1313.32 2019.38 1314.78 2019.38 1316.25 2019.38 1317.44 2020.56 1317.44 2022.03L1317.44 2024.69C1317.44 2026.16 1316.25 2027.34 1314.78 2027.34Z" fill="#558BA5"/><path d="M1314.78 2014.06C1313.32 2014.06 1312.12 2012.88 1312.12 2011.41L1312.12 2008.75C1312.12 2007.28 1313.32 2006.09 1314.78 2006.09 1316.25 2006.09 1317.44 2007.28 1317.44 2008.75L1317.44 2011.41C1317.44 2012.88 1316.25 2014.06 1314.78 2014.06Z" fill="#558BA5"/><path d="M1314.78 2000.78C1313.32 2000.78 1312.12 1999.59 1312.12 1998.12L1312.12 1995.47C1312.12 1994 1313.32 1992.81 1314.78 1992.81 1316.25 1992.81 1317.44 1994 1317.44 1995.47L1317.44 1998.12C1317.44 1999.59 1316.25 2000.78 1314.78 2000.78Z" fill="#558BA5"/><path d="M1314.78 1987.5C1313.32 1987.5 1312.12 1986.31 1312.12 1984.84L1312.12 1982.19C1312.12 1980.72 1313.32 1979.53 1314.78 1979.53 1316.25 1979.53 1317.44 1980.72 1317.44 1982.19L1317.44 1984.84C1317.44 1986.31 1316.25 1987.5 1314.78 1987.5Z" fill="#558BA5"/><path d="M1314.78 1974.22C1313.32 1974.22 1312.12 1973.03 1312.12 1971.56L1312.12 1968.91C1312.12 1967.44 1313.32 1966.25 1314.78 1966.25 1316.25 1966.25 1317.44 1967.44 1317.44 1968.91L1317.44 1971.56C1317.44 1973.03 1316.25 1974.22 1314.78 1974.22Z" fill="#558BA5"/><path d="M1314.78 1960.94C1313.32 1960.94 1312.12 1959.75 1312.12 1958.28L1312.12 1955.62C1312.12 1954.16 1313.32 1952.97 1314.78 1952.97 1316.25 1952.97 1317.44 1954.16 1317.44 1955.62L1317.44 1958.28C1317.44 1959.75 1316.25 1960.94 1314.78 1960.94Z" fill="#558BA5"/></g></g></g><g clip-path="url(#clip13)"><g clip-path="url(#clip14)"><g clip-path="url(#clip15)"><path d="M602.821 1518.15C602.821 1470.72 564.467 1432.26 517.155 1432.26 469.842 1432.26 431.488 1470.72 431.488 1518.15 431.488 1565.59 469.842 1604.05 517.155 1604.05 564.467 1604.05 602.821 1565.59 602.821 1518.15Z" fill="#65A7C7"/><path d="M517.155 1432.26C512.758 1432.26 508.437 1432.59 504.22 1433.23 545.393 1439.49 576.949 1475.12 576.949 1518.15 576.949 1561.18 545.393 1596.82 504.22 1603.07 508.437 1603.71 512.758 1604.05 517.155 1604.05 564.467 1604.05 602.821 1565.59 602.821 1518.15 602.821 1470.72 564.467 1432.26 517.155 1432.26Z" fill="#3D6376"/><path d="M506.02 1465.64C492.823 1473.91 482.925 1487.14 490.348 1502.03 497.772 1516.91 514.268 1511.12 529.526 1509.06 544.786 1506.99 533.238 1554.13 542.31 1565.71 551.383 1577.28 576.951 1554.13 574.477 1539.24 570.813 1517.2 569.529 1509.47 599.221 1493.76L599.3 1493.73C589.292 1459.84 558.997 1434.69 522.519 1432.43L522.515 1432.56C522.515 1432.56 519.216 1457.37 506.02 1465.64Z" fill="#4D6A78"/><path d="M570.828 1451.21C570.834 1451.22 570.839 1451.22 570.845 1451.23 570.839 1451.22 570.834 1451.22 570.828 1451.21Z" fill="#4D6A78"/><path d="M581.304 1461.23C581.304 1461.24 581.306 1461.24 581.307 1461.24 581.306 1461.24 581.306 1461.24 581.304 1461.23Z" fill="#4D6A78"/><path d="M460.244 1557.02C456.282 1550.98 467.255 1536.76 469.729 1526.01 472.204 1515.26 457.357 1516.09 452.821 1512.37 448.285 1508.64 442.098 1492.52 437.562 1488.8L436.837 1488.23C433.38 1497.54 431.488 1507.63 431.488 1518.15 431.488 1546.55 445.228 1571.72 466.403 1587.35L466.429 1585.55C466.429 1585.55 469.729 1571.49 460.244 1557.02Z" fill="#4D6A78"/><path d="M574.477 1539.24C574.46 1539.13 574.442 1539.03 574.424 1538.92 572.785 1545.54 570.379 1551.86 567.307 1557.77 572.179 1552.02 575.435 1545.01 574.477 1539.24Z" fill="#4D6A78"/><path d="M522.519 1432.43 522.515 1432.56C522.515 1432.56 522.24 1434.63 521.532 1437.77 551.572 1449.14 573.565 1476.95 576.592 1510.26 580.377 1505.09 587.301 1500.07 599.221 1493.76L599.3 1493.73C589.292 1459.84 558.997 1434.69 522.519 1432.43Z" fill="#214F66"/><path d="M517.039 1629C510.972 1629 504.861 1628.5 498.753 1627.49 469.56 1622.67 443.989 1606.77 426.755 1582.72 409.521 1558.67 402.685 1529.35 407.507 1500.15 407.856 1498.04 409.859 1496.61 411.968 1496.96 414.083 1497.31 415.514 1499.3 415.164 1501.42 410.681 1528.57 417.038 1555.83 433.065 1578.2 449.093 1600.57 472.869 1615.35 500.02 1619.84 556.068 1629.1 609.187 1591.03 618.445 1534.99 622.927 1507.84 616.571 1480.57 600.543 1458.21 584.517 1435.84 560.74 1421.06 533.591 1416.57 531.476 1416.22 530.044 1414.23 530.393 1412.11 530.743 1410 532.745 1408.57 534.853 1408.91 564.049 1413.74 589.619 1429.64 606.852 1453.69 624.086 1477.74 630.922 1507.06 626.101 1536.25 621.28 1565.44 605.378 1591.01 581.326 1608.24 562.303 1621.87 539.985 1629 517.039 1629Z" fill="#3D687E"/><path d="M493.478 1461.74C452.052 1454.71 426.353 1402.55 426.353 1402.55 426.353 1402.55 467.821 1361.79 509.247 1368.81 550.674 1375.84 576.373 1428 576.373 1428 576.373 1428 534.905 1468.77 493.478 1461.74Z" fill="#53A5CD"/><path d="M509.247 1368.81C501.336 1367.47 493.427 1367.88 485.802 1369.4 525.498 1378.32 549.985 1428 549.985 1428 549.985 1428 522.84 1454.68 490.533 1461.15 491.507 1461.37 492.487 1461.57 493.478 1461.74 534.905 1468.77 576.373 1428 576.373 1428 576.373 1428 550.674 1375.84 509.247 1368.81Z" fill="#4984A1"/><path d="M574.031 1423.67 533.519 1416.84 495.677 1368.11C492.658 1368.29 489.667 1368.67 486.716 1369.23L522.209 1414.93 491.66 1409.77 465.595 1376.05C463.149 1377.15 460.772 1378.32 458.48 1379.54L480.378 1407.87 429.865 1399.35C427.597 1401.33 426.353 1402.55 426.353 1402.55 426.353 1402.55 427.185 1404.24 428.782 1407.04L479.02 1415.51 451.158 1437.05C452.952 1438.9 454.834 1440.73 456.801 1442.5L489.434 1417.27 521.774 1422.72 477.791 1456.75C480.522 1458.03 483.343 1459.13 486.252 1460.02L532.189 1424.48 572.727 1431.32C575.077 1429.27 576.373 1428 576.373 1428 576.373 1428 575.571 1426.38 574.031 1423.67Z" fill="#3D687E"/><path d="M604.55 1411.11C615.663 1384.81 654.168 1375.96 654.168 1375.96 654.168 1375.96 674.657 1409.74 663.543 1436.04 652.432 1462.33 613.925 1471.19 613.925 1471.19 613.925 1471.19 593.436 1437.41 604.55 1411.11Z" fill="#53A5CD"/><path d="M654.168 1375.96C654.168 1375.96 645.412 1377.97 635.046 1382.93 640.365 1394.2 648.796 1417.07 640.777 1436.04 634.964 1449.79 621.655 1458.78 610.282 1464.21 612.336 1468.56 613.927 1471.19 613.927 1471.19 613.927 1471.19 652.432 1462.33 663.545 1436.04 674.657 1409.74 654.168 1375.96 654.168 1375.96Z" fill="#4984A1"/><path d="M666.691 1414.35 637.081 1426.77 656.522 1380.29C655.13 1377.54 654.168 1375.96 654.168 1375.96 654.168 1375.96 652.336 1376.38 649.355 1377.31L629.263 1425.35 616.804 1394.69C614.693 1396.55 612.702 1398.58 610.896 1400.77L625.014 1435.51 611.752 1467.21C613.046 1469.74 613.925 1471.19 613.925 1471.19 613.925 1471.19 615.916 1470.73 619.118 1469.71L632.812 1436.98 666.679 1422.77C666.904 1419.96 666.892 1417.14 666.691 1414.35Z" fill="#3D687E"/></g></g></g></g></svg>