<svg width="1540" height="1539" xmlns="http://www.w3.org/2000/svg" xmlns:xlink="http://www.w3.org/1999/xlink" overflow="hidden"><defs><clipPath id="clip0"><rect x="2396" y="541" width="1540" height="1539"/></clipPath><clipPath id="clip1"><rect x="3104" y="632" width="123" height="122"/></clipPath><clipPath id="clip2"><rect x="3104" y="632" width="123" height="122"/></clipPath><clipPath id="clip3"><rect x="3104" y="632" width="123" height="122"/></clipPath><clipPath id="clip4"><rect x="3631" y="1152" width="122" height="123"/></clipPath><clipPath id="clip5"><rect x="3631" y="1152" width="122" height="123"/></clipPath><clipPath id="clip6"><rect x="3631" y="1152" width="122" height="123"/></clipPath><clipPath id="clip7"><rect x="3106" y="1676" width="123" height="122"/></clipPath><clipPath id="clip8"><rect x="3106" y="1676" width="123" height="122"/></clipPath><clipPath id="clip9"><rect x="3106" y="1676" width="123" height="122"/></clipPath><clipPath id="clip10"><rect x="2579" y="1152" width="123" height="123"/></clipPath><clipPath id="clip11"><rect x="2579" y="1152" width="123" height="123"/></clipPath><clipPath id="clip12"><rect x="2579" y="1152" width="123" height="123"/></clipPath><clipPath id="clip13"><rect x="2601" y="745" width="79" height="80"/></clipPath><clipPath id="clip14"><rect x="2601" y="745" width="79" height="80"/></clipPath><clipPath id="clip15"><rect x="2601" y="745" width="79" height="80"/></clipPath><clipPath id="clip16"><rect x="3652" y="745" width="80" height="80"/></clipPath><clipPath id="clip17"><rect x="3652" y="745" width="80" height="80"/></clipPath><clipPath id="clip18"><rect x="3652" y="745" width="80" height="80"/></clipPath><clipPath id="clip19"><rect x="3652" y="1797" width="80" height="79"/></clipPath><clipPath id="clip20"><rect x="3652" y="1797" width="80" height="79"/></clipPath><clipPath id="clip21"><rect x="3652" y="1797" width="80" height="79"/></clipPath><clipPath id="clip22"><rect x="2601" y="1797" width="79" height="79"/></clipPath><clipPath id="clip23"><rect x="2601" y="1797" width="79" height="79"/></clipPath><clipPath id="clip24"><rect x="2601" y="1797" width="79" height="79"/></clipPath></defs><g clip-path="url(#clip0)" transform="translate(-2396 -541)"><rect x="2922" y="541" width="489" height="489" fill="#27576E"/><text fill="#FFFFFF" font-family="Open Sans,Open Sans_MSFontService,sans-serif" font-weight="700" font-size="55" transform="matrix(1 0 0 1 3003.13 928)">Værditilbud</text><rect x="2922" y="1592" width="489" height="488" fill="#27576E"/><text fill="#FFFFFF" font-family="Open Sans,Open Sans_MSFontService,sans-serif" font-weight="700" font-size="55" transform="matrix(1 0 0 1 3071.04 1946)">Salg og<tspan font-size="55" x="-126.34" y="66">kommunikation</tspan></text><rect x="3447" y="1066" width="489" height="488" fill="#27576E"/><text fill="#FFFFFF" font-family="Open Sans,Open Sans_MSFontService,sans-serif" font-weight="700" font-size="55" transform="matrix(1 0 0 1 3590.53 1453)">Kunder</text><rect x="2396" y="1066" width="489" height="488" fill="#27576E"/><text fill="#FFFFFF" font-family="Open Sans,Open Sans_MSFontService,sans-serif" font-weight="700" font-size="55" transform="matrix(1 0 0 1 2448.96 1420)">Ressourcer<tspan font-size="55" x="319.115" y="0">og </tspan><tspan font-size="55" x="58.1397" y="66">processer</tspan></text><path d="M19.6387 0 19.6387 22.1013 0 22.1013 0 44.8984 19.6387 44.8984 19.6387 67 83.9999 33.4998Z" stroke="#FFFFFF" stroke-width="9.16667" stroke-linejoin="round" stroke-miterlimit="10" fill="#C1DCE9" fill-rule="evenodd" transform="matrix(-1 1.22465e-16 1.22465e-16 1 2932.5 1277.5)"/><path d="M19.405 0 19.405 21.7714 0 21.7714 0 44.2283 19.405 44.2283 19.405 66 83.0002 32.9998Z" stroke="#FFFFFF" stroke-width="9.16667" stroke-linejoin="round" stroke-miterlimit="10" fill="#C1DCE9" fill-rule="evenodd" transform="matrix(-1.83697e-16 -1 -1 1.83697e-16 3199.5 1075.5)"/><path d="M19.405 0 19.405 22.1013 0 22.1013 0 44.8984 19.405 44.8984 19.405 67 83.0002 33.4998Z" stroke="#FFFFFF" stroke-width="9.16667" stroke-linejoin="round" stroke-miterlimit="10" fill="#C1DCE9" fill-rule="evenodd" transform="matrix(1 0 0 -1 3403.5 1344.5)"/><path d="M19.4049 0 19.4049 21.7714 0 21.7714 0 44.2283 19.4049 44.2283 19.4049 66 82.9998 32.9998Z" stroke="#FFFFFF" stroke-width="9.16667" stroke-linejoin="round" stroke-miterlimit="10" fill="#C1DCE9" fill-rule="evenodd" transform="matrix(6.12323e-17 1 1 -6.12323e-17 3133.5 1546.5)"/><path d="M2396 1029.5C2396 759.709 2615.16 541 2885.5 541L2885.5 1029.5Z" fill="#326F8E" fill-rule="evenodd"/><path d="M3936 1591C3936 1860.51 3717.07 2079 3447 2079L3447 1591Z" fill="#326F8E" fill-rule="evenodd"/><path d="M3447 541C3717.07 541 3936 759.709 3936 1029.5L3447 1029.5Z" fill="#326F8E" fill-rule="evenodd"/><path d="M2885.5 2079C2615.16 2079 2396 1860.52 2396 1591L2885.5 1591Z" fill="#326F8E" fill-rule="evenodd"/><path d="M3075 693C3075 643.294 3115.29 603 3165 603 3214.71 603 3255 643.294 3255 693 3255 742.706 3214.71 783 3165 783 3115.29 783 3075 742.706 3075 693Z" stroke="#A3CADD" stroke-width="27.5" stroke-linejoin="round" stroke-miterlimit="10" fill="#FFFFFF" fill-rule="evenodd"/><path d="M0 254 0 178.089C-3.67936e-14 91.8563 69.9057 21.9506 156.139 21.9506L225.5 21.9506 225.5 0 289 33.2714 225.5 66.5431 225.5 44.5921 156.139 44.5921C82.4103 44.5921 22.6415 104.361 22.6415 178.089L22.6415 254Z" fill="#E0EDF4" fill-rule="evenodd" transform="matrix(1 0 0 -1 2597 1901)"/><path d="M2576 1655 2610 1594 2644 1655Z" fill="#E0EDF4" fill-rule="evenodd"/><path d="M0 255 0 178.79C0 92.2178 70.1809 22.0369 156.753 22.0369L225.25 22.0372 225.25 0 289 33.4025 225.25 66.8047 225.25 44.7679 156.753 44.7679C82.7347 44.7679 22.7306 104.772 22.7306 178.791L22.7306 255Z" fill="#E0EDF4" fill-rule="evenodd" transform="matrix(-1.83697e-16 -1 -1 1.83697e-16 3758 1883)"/><path d="M3512 1905 3451 1871 3512 1837Z" fill="#E0EDF4" fill-rule="evenodd"/><path d="M0 254 0 178.089C-3.67935e-14 91.8562 69.9056 21.9506 156.139 21.9506L225.5 21.9506 225.5 0 289 33.2713 225.5 66.543 225.5 44.5921 156.139 44.5921C82.4101 44.5921 22.6415 104.361 22.6415 178.089L22.6415 254Z" fill="#E0EDF4" fill-rule="evenodd" transform="matrix(-1 1.22465e-16 1.22465e-16 1 3736 719)"/><path d="M3758 964 3724 1025 3690 964Z" fill="#E0EDF4" fill-rule="evenodd"/><path d="M0 254 0 178.089C-1.83331e-14 91.8563 69.9057 21.9506 156.139 21.9506L224.5 21.9506 224.5 0 288 33.2715 224.5 66.543 224.5 44.5921 156.139 44.5921C82.4103 44.5921 22.6416 104.361 22.6416 178.089L22.6416 254Z" fill="#E0EDF4" fill-rule="evenodd" transform="matrix(6.12323e-17 1 1 -6.12323e-17 2576 741)"/><path d="M2821 719 2883 753 2821 787Z" fill="#E0EDF4" fill-rule="evenodd"/><path d="M2551 1214C2551 1164.29 2591.29 1124 2641 1124 2690.71 1124 2731 1164.29 2731 1214 2731 1263.71 2690.71 1304 2641 1304 2591.29 1304 2551 1263.71 2551 1214Z" stroke="#A3CADD" stroke-width="27.5" stroke-linejoin="round" stroke-miterlimit="10" fill="#FFFFFF" fill-rule="evenodd"/><path d="M3601 1214C3601 1164.29 3641.29 1124 3691 1124 3740.71 1124 3781 1164.29 3781 1214 3781 1263.71 3740.71 1304 3691 1304 3641.29 1304 3601 1263.71 3601 1214Z" stroke="#A3CADD" stroke-width="27.5" stroke-linejoin="round" stroke-miterlimit="10" fill="#FFFFFF" fill-rule="evenodd"/><rect x="2922" y="1066" width="489" height="488" fill="#C1DCE9"/><text fill="#28576E" font-family="Open Sans,Open Sans_MSFontService,sans-serif" font-weight="700" font-size="55" transform="matrix(1 0 0 1 2952.72 1296)">Virksomhedens <tspan font-size="55" x="161.563" y="66">mål</tspan></text><g clip-path="url(#clip1)"><g clip-path="url(#clip2)"><g clip-path="url(#clip3)"><path d="M96.4788 29.1752C94.0593 28.1897 91.4713 27.6823 88.8589 27.6823L60.5 27.6823 84.7068 53.1207 96.515 29.1896C96.5029 29.1851 96.4909 29.1801 96.4788 29.1752Z" fill="#65A7C7" transform="matrix(1.00826 0 0 1 3104 633)"/><path d="M32.1413 27.6825C29.5287 27.6825 26.9409 28.1899 24.5214 29.1754L24.4852 29.1901 36.2934 53.1211 60.5 27.6825Z" fill="#65A7C7" transform="matrix(1.00826 0 0 1 3104 633)"/><path d="M44.0409 27.6825 32.1413 27.6825C29.529 27.6825 26.9409 28.1899 24.5214 29.1754L24.4852 29.1901 31.105 42.6059Z" fill="#548EA9" transform="matrix(1.00826 0 0 1 3104 633)"/><path d="M60.5 27.6825 36.2931 50.2429 84.7068 50.2429Z" fill="#548EA9" transform="matrix(1.00826 0 0 1 3104 633)"/><path d="M112.257 44.6509 102.269 33.2741C100.705 31.4919 98.7466 30.099 96.5504 29.2045L96.515 29.1901 84.7068 50.2429 114.363 50.2429C114.363 48.1849 113.615 46.1972 112.257 44.6509Z" fill="#548EA9" transform="matrix(1.00826 0 0 1 3104 633)"/><path d="M24.4496 29.2042C22.2531 30.0985 20.2954 31.4917 18.7309 33.2738L8.74319 44.6507C7.38549 46.1972 6.6368 48.1847 6.6368 50.2426L36.2931 50.2426 24.485 29.1898C24.4732 29.1948 24.4614 29.1995 24.4496 29.2042Z" fill="#548EA9" transform="matrix(1.00826 0 0 1 3104 633)"/><path d="M27.0716 47.2588 31.6543 41.9719 24.485 29.1898C24.4732 29.1946 24.4614 29.1995 24.4496 29.2042 22.2531 30.0985 20.2954 31.4917 18.7309 33.2736L8.74319 44.6507C7.38549 46.1972 6.6368 48.1847 6.6368 50.2426L25.6785 50.2426C25.855 49.16 26.3227 48.123 27.0716 47.2588Z" fill="#66AACB" transform="matrix(1.00826 0 0 1 3104 633)"/><path d="M35.5738 50.2429 58.9064 120.763C59.4179 120.914 59.9503 121 60.5002 121 61.0499 121 61.5824 120.914 62.094 120.763L85.4267 50.2429Z" fill="#77C3E7" transform="matrix(1.00826 0 0 1 3104 633)"/><path d="M60.5 11.1098C59.5065 11.1098 58.7013 10.3044 58.7013 9.31109L58.7013 1.79869C58.7011 0.805406 59.5065 2.09901e-16 60.5 2.09901e-16 61.4935 2.09901e-16 62.2987 0.805406 62.2987 1.79869L62.2987 9.31085C62.2987 10.3044 61.4935 11.1098 60.5 11.1098Z" fill="#65A7C7" transform="matrix(1.00826 0 0 1 3104 633)"/><path d="M47.0811 13.3887 43.3251 6.88306C42.8283 6.02259 43.123 4.92248 43.9835 4.42595 44.8437 3.92919 45.9438 4.22389 46.4406 5.08436L50.1966 11.59C50.6933 12.4505 50.3986 13.5506 49.5382 14.0471 48.6779 14.5439 47.5778 14.2492 47.0811 13.3887Z" fill="#65A7C7" transform="matrix(1.00826 0 0 1 3104 633)"/><path d="M39.0563 22.73 32.5507 18.9741C31.6902 18.4773 31.3955 17.3772 31.8922 16.517 32.389 15.6567 33.4889 15.3618 34.3493 15.8586L40.855 19.6145C41.7155 20.1113 42.0102 21.2114 41.5134 22.0716 41.0166 22.9321 39.9165 23.227 39.0563 22.73Z" fill="#65A7C7" transform="matrix(1.00826 0 0 1 3104 633)"/><path d="M79.4866 22.0716C78.9898 21.2112 79.2845 20.1111 80.145 19.6145L86.6507 15.8586C87.5109 15.3618 88.6112 15.6565 89.1078 16.517 89.6045 17.3774 89.3098 18.4776 88.4493 18.9741L81.9437 22.73C81.0835 23.2268 79.9834 22.9321 79.4866 22.0716Z" fill="#65A7C7" transform="matrix(1.00826 0 0 1 3104 633)"/><path d="M71.4618 14.0469C70.6014 13.5501 70.3067 12.45 70.8034 11.5898L74.5594 5.08413C75.0562 4.22389 76.156 3.92896 77.0165 4.42572 77.877 4.92248 78.1717 6.02259 77.6749 6.88282L73.9189 13.3885C73.4224 14.2489 72.3223 14.5439 71.4618 14.0469Z" fill="#65A7C7" transform="matrix(1.00826 0 0 1 3104 633)"/><path d="M84.7068 50.2429 62.0938 120.763C65.1977 119.851 67.0917 116.952 68.3199 115.316L112.122 56.9631C113.577 55.0247 114.363 52.6667 114.363 50.2429Z" fill="#66AACB" transform="matrix(1.00826 0 0 1 3104 633)"/><path d="M6.6368 50.2429C6.6368 52.6667 7.4233 55.0247 8.87838 56.9631L52.6801 115.316C53.7963 116.803 55.7288 119.829 58.9062 120.763L36.2931 50.2429Z" fill="#66AACB" transform="matrix(1.00826 0 0 1 3104 633)"/><path d="M52.6804 115.316C53.6696 116.634 55.3027 119.159 57.8737 120.366L26.1828 53.8081C25.6433 52.6749 25.4852 51.4314 25.6787 50.2429L6.6368 50.2429C6.6368 52.6667 7.42354 55.0247 8.87838 56.9631Z" fill="#77C3E7" transform="matrix(1.00826 0 0 1 3104 633)"/></g></g></g><g clip-path="url(#clip4)"><g clip-path="url(#clip5)"><g clip-path="url(#clip6)"><path d="M115.328 60.5C115.328 90.7807 90.7807 115.328 60.5 115.328 30.2193 115.328 5.67188 90.7807 5.67188 60.5 5.67188 30.2193 30.2193 5.67188 60.5 5.67188 90.7807 5.67188 115.328 30.2193 115.328 60.5Z" fill="#65A7C7" transform="matrix(1 0 0 1.00826 3631 1153)"/><path d="M102.54 101.871C101.105 100.494 100.203 98.5677 100.203 96.4219L100.203 93.6521C99.3542 94.2174 98.4694 94.7354 97.5109 95.1457 95.6089 95.9606 93.4555 95.9606 91.5535 95.1457 90.595 94.7354 89.7083 94.2174 88.8613 93.6521L88.8613 96.4219C88.8613 98.5677 87.9594 100.494 86.5245 101.871L94.5312 105.875Z" fill="#DEE4E7" transform="matrix(1 0 0 1.00826 3631 1153)"/><path d="M5.67188 60.5 60.5 60.5 60.5 5.67188C30.2197 5.67188 5.67188 30.2197 5.67188 60.5Z" fill="#4385A5" transform="matrix(1 0 0 1.00826 3631 1153)"/><path d="M68.0417 87.0519C68.3858 84.7945 66.9716 81.2496 65.9601 79.272 65.6501 78.667 65.306 78.0809 64.9127 77.5156 64.3966 76.7726 63.7972 76.0655 63.0864 75.4 62.003 74.3848 61.1542 73.2315 60.9065 71.9893L60.5 69.9531 60.5 70.1497C60.5 75.3187 56.3104 79.5083 51.1414 79.5083 47.3129 79.5499 44.424 84.6357 45.7569 88.0294 46.6682 90.353 48.7951 92.3098 51.0469 93.7202L51.0469 93.6521 51.0469 93.7202C51.9487 94.2855 52.8657 94.7714 53.741 95.1457 55.643 95.9606 57.7964 95.9606 59.6984 95.1457 60.5 94.8016 61.4377 94.3006 62.3906 93.6975L62.3906 93.6521 62.3906 93.6975C64.9657 92.0659 67.6485 89.6232 68.0417 87.0519Z" fill="#DEE4E7" transform="matrix(1 0 0 1.00826 3631 1153)"/><path d="M51.0469 93.7202C48.7933 92.3098 46.6682 90.353 45.7569 88.0294 44.424 84.6357 47.3129 79.5499 51.1414 79.5083 56.3104 79.5083 60.5 75.3187 60.5 70.1497L60.5 69.9531 60.9065 71.9874C61.1542 73.2296 62.003 74.3848 63.0864 75.3981 63.7972 76.0636 64.3966 76.7707 64.9127 77.5137 65.306 78.079 65.6501 78.6651 65.9601 79.2701 66.9716 81.2458 68.3858 84.7926 68.0417 87.05 67.6485 89.6213 64.9657 92.064 62.3906 93.6956L62.3906 96.4219C62.3906 97.0685 62.4965 97.6867 62.6496 98.286L71.995 98.2028C73.8365 98.2028 75.625 96.8189 75.625 94.9774 75.625 94.6806 75.5853 94.3857 75.5078 94.1002 75.5078 94.1002 70.0987 75.1731 69.9531 73.7344 69.3727 68.0152 64.4817 62.3906 58.6094 62.3906L54.8281 62.3906C48.5626 62.3906 44.3162 67.5256 43.4844 73.7344 42.7848 78.9657 37.9297 94.1002 37.9297 94.1002 37.8522 94.3857 37.8125 94.6806 37.8125 94.9774 37.8125 96.8189 39.3061 98.3125 41.1476 98.3125L50.7803 98.3125C50.9372 97.7056 51.0469 97.0779 51.0469 96.4219Z" fill="#1A3846" transform="matrix(1 0 0 1.00826 3631 1153)"/><path d="M60.5 5.67188 60.5 60.5 99.2692 21.7308C89.3472 11.8088 75.6401 5.67188 60.5 5.67188Z" fill="#78B4D1" transform="matrix(1 0 0 1.00826 3631 1153)"/><path d="M60.5 60.5 108.845 34.6287C106.291 29.8662 103.06 25.5215 99.2692 21.7308Z" fill="#385F72" transform="matrix(1 0 0 1.00826 3631 1153)"/><path d="M98.3125 70.0458 98.3125 69.9531 98.719 71.9874C99.5868 76.3245 103.343 79.4819 107.766 79.5915L107.766 73.7344C107.766 67.4688 102.687 62.3906 96.4219 62.3906L92.6406 62.3906C86.3751 62.3906 81.2969 67.4688 81.2969 73.7344L81.2969 79.5934 88.9539 79.5102C94.138 79.4516 98.3125 75.2318 98.3125 70.0458Z" fill="#1A3846" transform="matrix(1 0 0 1.00826 3631 1153)"/><path d="M97.5109 95.1457C98.4694 94.7354 99.3561 94.2174 100.203 93.6521 104.858 90.5534 107.766 85.3182 107.766 79.5934 103.343 79.4838 99.5868 76.3264 98.719 71.9893L98.3125 69.9531 98.3125 70.0458C98.3125 75.2318 94.138 79.4516 88.9539 79.5083L81.2969 79.5934C81.2969 85.3182 84.2047 90.5534 88.8594 93.6521 89.7083 94.2174 90.5931 94.7354 91.5516 95.1457 93.4555 95.9606 95.607 95.9606 97.5109 95.1457Z" fill="#DEE4E7" transform="matrix(1 0 0 1.00826 3631 1153)"/><path d="M64.7274 101.871C63.2925 100.494 62.3906 98.5677 62.3906 96.4219L62.3906 93.6521C61.5417 94.2174 60.6569 94.7354 59.6984 95.1457 57.7964 95.9606 55.643 95.9606 53.741 95.1457 52.7825 94.7354 51.8958 94.2174 51.0488 93.6521L51.0488 96.4219C51.0488 98.5677 50.1469 100.494 48.712 101.871L56.7188 105.875Z" fill="#DEE4E7" transform="matrix(1 0 0 1.00826 3631 1153)"/><path d="M48.7101 101.871C47.3507 103.173 45.5149 103.984 43.4844 103.984 41.2118 103.984 39.1983 105.007 37.8125 106.593 36.6498 107.923 35.9219 109.643 35.9219 111.547L35.9219 115.328 56.7188 115.328 56.7188 105.875Z" fill="#0F384C" transform="matrix(1 0 0 1.00826 3631 1153)"/><path d="M64.7274 101.871C66.0868 103.173 67.9226 103.984 69.9531 103.984 72.2257 103.984 74.2392 105.007 75.625 106.593 76.7877 107.923 77.5156 109.643 77.5156 111.547L77.5156 115.328 56.7188 115.328 56.7188 105.875Z" fill="#0F384C" transform="matrix(1 0 0 1.00826 3631 1153)"/><path d="M39.8203 97.8814C39.8203 97.8814 44.6736 82.747 45.375 77.5156 46.2069 71.3068 50.4532 66.1719 56.7188 66.1719L60.5 66.1719C64.0997 66.1719 67.3233 68.2875 69.4181 71.2406 67.9037 66.4857 63.6195 62.3906 58.6094 62.3906L54.8281 62.3906C48.5626 62.3906 44.3162 67.5256 43.4844 73.7344 42.7848 78.9657 37.9297 94.1002 37.9297 94.1002 37.8522 94.3857 37.8125 94.6806 37.8125 94.9774 37.8125 96.3387 38.6311 97.5071 39.8014 98.0232 39.8128 97.9779 39.8071 97.9287 39.8203 97.8814Z" fill="#092838" transform="matrix(1 0 0 1.00826 3631 1153)"/><path d="M96.4219 62.3906 92.6406 62.3906C86.3751 62.3906 81.2969 67.4688 81.2969 73.7344L81.2969 77.3285C81.2969 71.0629 86.3751 65.9847 92.6406 65.9847L96.4219 65.9847C102.687 65.9847 107.766 71.0629 107.766 77.3285L107.766 73.7344C107.766 67.4688 102.687 62.3906 96.4219 62.3906Z" fill="#092838" transform="matrix(1 0 0 1.00826 3631 1153)"/><path d="M98.0421 104.119 102.54 101.869C101.105 100.494 100.203 98.5677 100.203 96.4219L100.203 93.6521C99.3542 94.2174 98.4694 94.7354 97.5109 95.1457 95.6089 95.9606 93.4555 95.9606 91.5535 95.1457 90.595 94.7354 89.7083 94.2174 88.8613 93.6521L88.8613 95.8547Z" fill="#3A6D85" transform="matrix(1 0 0 1.00826 3631 1153)"/><path d="M61.901 103.285 64.7293 101.871C63.2925 100.494 62.3906 98.5677 62.3906 96.4219L62.3906 93.6521C61.5417 94.2174 60.6569 94.7354 59.6984 95.1457 57.7964 95.9606 55.643 95.9606 53.741 95.1457 52.7825 94.7354 51.8958 94.2174 51.0488 93.6521L51.0488 95.3915Z" fill="#3A6D85" transform="matrix(1 0 0 1.00826 3631 1153)"/><path d="M86.5226 101.871C85.1632 103.173 83.3274 103.984 81.2969 103.984 79.0243 103.984 77.0108 105.007 75.625 106.593 74.4623 107.923 73.7344 109.643 73.7344 111.547L73.7344 115.328 94.5312 115.328 94.5312 105.875Z" fill="#456A7C" transform="matrix(1 0 0 1.00826 3631 1153)"/><path d="M102.54 101.871C103.899 103.173 105.735 103.984 107.766 103.984 110.038 103.984 112.052 105.007 113.438 106.593 114.6 107.923 115.328 109.643 115.328 111.547L115.328 115.328 94.5312 115.328 94.5312 105.875Z" fill="#456A7C" transform="matrix(1 0 0 1.00826 3631 1153)"/></g></g></g><path d="M3077 1736.5C3077 1687.07 3117.29 1647 3167 1647 3216.71 1647 3257 1687.07 3257 1736.5 3257 1785.93 3216.71 1826 3167 1826 3117.29 1826 3077 1785.93 3077 1736.5Z" stroke="#A3CADD" stroke-width="27.5" stroke-linejoin="round" stroke-miterlimit="10" fill="#FFFFFF" fill-rule="evenodd"/><g clip-path="url(#clip7)"><g clip-path="url(#clip8)"><g clip-path="url(#clip9)"><path d="M57.9013 5.19922C25.9231 5.19922 0 31.1223 0 63.1006 0 75.2686 3.75632 86.5571 10.1686 95.8771L59.1125 120.986C90.5312 120.341 115.803 94.6735 115.803 63.1006 115.803 31.1223 89.8794 5.19922 57.9013 5.19922Z" fill="#FFFFFF" transform="matrix(1.00826 0 0 1 3106 1676)"/><path d="M57.7683 121 58.0351 121C64.8435 120.984 71.3749 119.793 77.4391 117.618 80.153 115.19 81.8629 111.66 81.8619 107.731L81.8572 13.2667C81.8572 5.93959 75.9166 6.71685e-15 68.5895 6.71685e-15L22.9404 0.00184631C15.6133 0.00276948 9.67284 5.94235 9.67376 13.2704L9.67745 95.1526C20.0316 110.699 37.6998 120.955 57.7683 121Z" fill="#598FA9" transform="matrix(1.00826 0 0 1 3106 1676)"/><path d="M22.9404 0.00184631C15.6133 0.00276948 9.67284 5.94235 9.67376 13.2704L9.67745 95.1526C13.4975 100.888 18.3136 105.903 23.8784 109.951 23.7574 109.23 23.691 108.49 23.691 107.735L23.6865 13.2704C23.6855 5.94235 29.6259 0.00276948 36.953 0.00184631L36.953 0.000923157C36.9438 0.000923157 36.9622 6.71685e-15 36.953 6.71685e-15Z" fill="#296581" transform="matrix(1.00826 0 0 1 3106 1676)"/><path d="M30.4031 114.066 68.5952 114.064C72.0931 114.064 74.9281 111.229 74.9271 107.731L74.9233 13.2676C74.9224 9.76976 72.0874 6.93477 68.5895 6.93477L60.1252 6.93477C59.2574 6.93477 58.469 7.43325 58.0878 8.21332 57.2524 9.91841 55.5012 11.0927 53.4747 11.0927L38.0562 11.0936C36.0299 11.0936 34.2787 9.91933 33.4433 8.21425 33.0618 7.43417 32.2734 6.93661 31.4059 6.93661L22.9404 6.93661C19.4435 6.93661 16.6085 9.77255 16.6085 13.2704L16.6131 103.688C20.651 107.795 25.2944 111.304 30.4031 114.066Z" fill="#E8F7FF" transform="matrix(1.00826 0 0 1 3106 1676)"/><path d="M22.9404 6.93661C19.4435 6.93661 16.6085 9.77255 16.6085 13.2704L16.6131 103.688C18.8545 105.968 21.2843 108.064 23.8765 109.95 23.7548 109.229 23.691 108.489 23.691 107.735L23.6865 13.2704C23.6865 10.9763 24.2681 8.81891 25.2925 6.93661Z" fill="#D6EAF3" transform="matrix(1.00826 0 0 1 3106 1676)"/><path d="M62.8144 62.6333C57.3724 53.2072 45.3188 49.978 35.8914 55.4199 26.465 60.8628 23.2359 72.9164 28.6779 82.3429 34.1208 91.7691 46.1745 94.9992 55.6009 89.5563 65.0271 84.1134 68.2572 72.0598 62.8144 62.6333Z" fill="#FFFFFF" transform="matrix(1.00826 0 0 1 3106 1676)"/><path d="M56.3366 84.4337C55.8566 83.602 55.79 82.6475 56.0679 81.8019L42.878 58.9565C42.0064 58.7746 41.2135 58.2393 40.7323 57.4074 39.9127 55.9866 40.293 54.2049 41.555 53.2275 39.6145 53.6503 37.7054 54.3748 35.8933 55.4218 26.4669 60.8637 23.2368 72.9174 28.6789 82.3447 34.1218 91.7709 46.1754 95.0011 55.6016 89.5582 57.3677 88.5391 58.9159 87.2873 60.2313 85.8646 58.7847 86.3817 57.1314 85.8112 56.3366 84.4337Z" fill="#386F89" transform="matrix(1.00826 0 0 1 3106 1676)"/><path d="M58.1025 65.3539C54.1626 58.53 45.4369 56.1924 38.612 60.1325 31.788 64.0726 29.4505 72.7983 33.3906 79.6223 37.3306 86.4462 46.0563 88.7847 52.8803 84.8446 59.7043 80.9046 62.0425 72.1789 58.1025 65.3539Z" fill="#386F89" transform="matrix(1.00826 0 0 1 3106 1676)"/><path d="M39.9912 75.8134C36.7112 70.1332 37.7848 63.1365 42.1725 58.6777 40.954 58.9934 39.7568 59.4734 38.6139 60.1335 31.7899 64.0735 29.4514 72.8002 33.3915 79.6241 37.3316 86.4481 46.0573 88.7864 52.8822 84.8465 54.0251 84.1865 55.0396 83.3896 55.9221 82.4925 49.8671 84.0626 43.2703 81.4944 39.9912 75.8134Z" fill="#325D72" transform="matrix(1.00826 0 0 1 3106 1676)"/><path d="M45.746 83.7129C44.653 83.7129 43.7677 82.8266 43.7677 81.7336L43.7696 63.2464C43.7696 62.1534 44.6559 61.2671 45.7489 61.2671 46.8419 61.2671 47.7281 62.1534 47.7272 63.2464L47.7253 81.7346C47.7253 82.8276 46.8391 83.7129 45.746 83.7129Z" fill="#FFFFFF" transform="matrix(1.00826 0 0 1 3106 1676)"/><path d="M47.6118 81.1704 41.7424 81.1695C40.6494 81.1695 39.7632 80.2833 39.7632 79.1902 39.7641 78.0972 40.6494 77.2119 41.7424 77.2119L47.6128 77.2119C48.3688 77.2119 48.9837 76.597 48.9837 75.841 48.9837 75.085 48.3688 74.4691 47.6128 74.4691L43.8824 74.4691C40.9438 74.4682 38.5539 72.0772 38.5539 69.139 38.5539 66.2005 40.9448 63.8095 43.8833 63.8095L43.884 63.8095 49.7534 63.8105C50.8465 63.8105 51.7318 64.6967 51.7318 65.7897 51.7318 66.8828 50.8455 67.769 49.7534 67.769L49.7525 67.769 43.8833 67.768C43.127 67.768 42.5124 68.3827 42.5114 69.139 42.5114 69.895 43.127 70.5106 43.8833 70.5106L47.6128 70.5116C50.552 70.5116 52.9422 72.9025 52.9422 75.8419 52.9413 78.7795 50.5501 81.1695 47.6118 81.1704Z" fill="#FFFFFF" transform="matrix(1.00826 0 0 1 3106 1676)"/><path d="M102.895 84.5594C96.1874 72.9422 81.3328 68.9627 69.7159 75.6694 58.098 82.3769 54.1182 97.2315 60.8259 108.848 67.5327 120.466 82.388 124.446 94.005 117.738 105.622 111.032 109.602 96.1763 102.895 84.5594Z" fill="#37718D" transform="matrix(1.00826 0 0 1 3106 1676)"/><path d="M84.7993 109.878C82.8597 106.519 83.0388 103.31 84.5242 100.271L82.9372 101.606 76.32 95.0677 76.2822 94.6513C74.5024 93.4233 72.9876 91.9297 72.0699 90.3411 69.4564 85.8148 70.0888 77.7945 73.2433 73.9955 72.0442 74.4526 70.8651 75.0084 69.7177 75.6711 58.1008 82.3788 54.1201 97.2334 60.8268 108.851 67.5345 120.468 82.3899 124.449 94.0068 117.741 94.9937 117.173 95.9235 116.543 96.7986 115.863 92.1079 116.437 87.3112 114.228 84.7993 109.878Z" fill="#65A7C7" transform="matrix(1.00826 0 0 1 3106 1676)"/><path d="M64.0532 104.964C63.3017 104.211 63.3017 102.992 64.0532 102.24L73.1721 93.1206C73.9568 92.336 75.1736 92.3979 75.8973 93.1206L82.8413 100.066 93.1816 89.7262C93.934 88.9738 95.1535 88.9738 95.9057 89.7262 96.6582 90.4777 96.6582 91.6982 95.9057 92.4494L84.2039 104.152C83.4515 104.904 82.232 104.904 81.4796 104.152L74.5348 97.2074 66.7783 104.964C66.0261 105.715 64.8066 105.716 64.0532 104.964Z" fill="#E8F7FF" transform="matrix(1.00826 0 0 1 3106 1676)"/><path d="M96.2659 100.167C95.2024 100.167 94.3401 99.3039 94.3401 98.2404L94.3401 91.291 87.3906 91.291C86.3262 91.291 85.4641 90.4288 85.4641 89.3644 85.4641 88.3009 86.3262 87.4386 87.3906 87.4386L96.2659 87.4386C97.3303 87.4386 98.1924 88.3009 98.1924 89.3644L98.1924 98.2404C98.1924 99.3039 97.3303 100.167 96.2659 100.167Z" fill="#E8F7FF" transform="matrix(1.00826 0 0 1 3106 1676)"/><path d="M39.1548 18.5674 39.1548 22.345C39.1548 26.059 42.1144 29.0693 45.7654 29.0693 49.4167 29.0693 52.3762 26.059 52.3762 22.345L52.3762 18.5674Z" fill="#37718D" transform="matrix(1.00826 0 0 1 3106 1676)"/><path d="M39.4843 6.70858 39.1548 18.825 52.3762 18.825 52.0465 6.70858Z" fill="#65A7C7" transform="matrix(1.00826 0 0 1 3106 1676)"/><path d="M65.341 18.5674 65.341 22.345C65.341 26.059 62.3814 29.0693 58.7304 29.0693 55.0791 29.0693 52.1196 26.059 52.1196 22.345L52.1196 18.5674Z" fill="#FFFFFF" transform="matrix(1.00826 0 0 1 3106 1676)"/><path d="M51.7901 6.70858 52.1196 18.825 65.341 18.825 64.6818 6.70858Z" fill="#386F89" transform="matrix(1.00826 0 0 1 3106 1676)"/><path d="M78.305 18.825 78.305 22.345C78.305 26.059 75.3452 29.0693 71.6942 29.0693 68.0431 29.0693 65.0836 26.059 65.0836 22.345L65.0836 18.5674Z" fill="#37718D" transform="matrix(1.00826 0 0 1 3106 1676)"/><path d="M64.4252 6.70858 65.0836 18.825 78.305 18.825 75.6056 10.4289C74.8919 8.20964 72.8564 6.70858 70.5614 6.70858Z" fill="#65A7C7" transform="matrix(1.00826 0 0 1 3106 1676)"/><path d="M26.1908 18.5674 26.1908 22.345C26.1908 26.059 29.1506 29.0693 32.8016 29.0693 36.4527 29.0693 39.4124 26.059 39.4124 22.345L39.4124 18.5674Z" fill="#FFFFFF" transform="matrix(1.00826 0 0 1 3106 1676)"/><path d="M26.8499 6.70858 26.1908 18.825 39.4124 18.825 39.7419 6.70858Z" fill="#386F89" transform="matrix(1.00826 0 0 1 3106 1676)"/><path d="M13.2261 18.825 13.2261 22.345C13.2261 26.059 16.1857 29.0693 19.8368 29.0693 23.4879 29.0693 26.4475 26.059 26.4475 22.345L26.4475 18.5674Z" fill="#37718D" transform="matrix(1.00826 0 0 1 3106 1676)"/><path d="M15.9263 10.4289 13.2261 18.825 26.4475 18.825 27.1066 6.70858 20.9695 6.70858C18.6745 6.70858 16.639 8.20964 15.9263 10.4289Z" fill="#65A7C7" transform="matrix(1.00826 0 0 1 3106 1676)"/><path d="M64.9458 43.369 34.1882 43.369C32.2734 43.369 30.7208 41.8161 30.7208 39.9016 30.7208 37.986 32.2727 36.4342 34.1882 36.4342L64.9458 36.4342C66.8605 36.4342 68.4132 37.986 68.4132 39.9016 68.4132 41.8161 66.8605 43.369 64.9458 43.369Z" fill="#D6EAF3" transform="matrix(1.00826 0 0 1 3106 1676)"/><path d="M45.4922 39.9016C45.4922 37.986 47.0449 36.4342 48.9596 36.4342L34.1882 36.4342C32.2734 36.4342 30.7208 37.986 30.7208 39.9016 30.7208 41.8161 32.2727 43.369 34.1882 43.369L48.9596 43.369C47.0449 43.369 45.4922 41.8161 45.4922 39.9016Z" fill="#65A7C7" transform="matrix(1.00826 0 0 1 3106 1676)"/><path d="M34.1882 43.369 26.5907 43.369C24.676 43.369 23.1232 41.8161 23.1232 39.9016 23.1232 37.986 24.676 36.4342 26.5907 36.4342L34.1882 36.4342C36.1029 36.4342 37.6556 37.986 37.6556 39.9016 37.6556 41.8161 36.1029 43.369 34.1882 43.369Z" fill="#37718D" transform="matrix(1.00826 0 0 1 3106 1676)"/><path d="M30.669 39.9016C30.669 37.986 32.221 36.4342 34.1364 36.4342L26.5907 36.4342C24.676 36.4342 23.1232 37.986 23.1232 39.9016 23.1232 41.8161 24.676 43.369 26.5907 43.369L34.1364 43.369C32.221 43.369 30.669 41.8161 30.669 39.9016Z" fill="#65A7C7" transform="matrix(1.00826 0 0 1 3106 1676)"/></g></g></g><g clip-path="url(#clip10)"><g clip-path="url(#clip11)"><g clip-path="url(#clip12)"><path d="M2659 1164.44 2646.73 1156.76 2643.2 1153.36C2642.4 1152.58 2641.06 1153.15 2641.06 1154.27L2641.06 1156.48C2611.28 1156.51 2586.8 1179.18 2583.89 1208.2L2598.56 1207.51C2600.17 1187.79 2616.44 1170.03 2644.39 1169.29 2644.39 1169.29 2652.12 1168.36 2652.12 1168.36L2658.92 1166.33C2659.51 1165.86 2659.55 1164.97 2659 1164.44ZM2641.13 1156.48C2641.13 1156.48 2641.13 1156.48 2641.13 1156.48L2641.13 1156.48Z" fill="#65A7C7"/><path d="M2643.12 1175.63 2647.65 1171.97 2651.89 1170.27 2652.12 1168.36C2648.59 1167.41 2644.88 1166.91 2641.06 1166.91 2618.21 1166.91 2599.58 1184.91 2598.56 1207.51L2599.08 1207.49C2602.24 1187.12 2619.87 1171.46 2641.13 1171.46L2641.06 1171.48 2641.06 1174.65C2641.06 1175.71 2642.29 1176.3 2643.12 1175.63Z" fill="#4D86A1"/><path d="M2700.73 1214.06 2698.58 1214.06C2698.58 1214.04 2698.58 1214.02 2698.58 1214 2698.58 1184.15 2675.84 1159.6 2646.73 1156.76L2654.71 1164.44C2655.26 1164.97 2655.22 1165.86 2654.63 1166.33L2652.12 1168.36 2658.03 1173.12C2672.74 1179.82 2683.6 1192.24 2683.6 1209.45 2683.6 1210.22 2683.58 1210.98 2683.54 1211.74 2683.58 1212.49 2683.6 1213.24 2683.6 1214 2683.6 1214.02 2683.6 1214.04 2683.6 1214.06L2683.52 1214.06 2680.35 1214.06C2679.29 1214.06 2678.7 1215.29 2679.37 1216.12L2683.07 1220.7 2688.67 1229.77C2689.14 1230.36 2690.03 1230.4 2690.56 1229.85L2698.3 1219.67 2701.64 1216.2C2702.42 1215.4 2701.85 1214.06 2700.73 1214.06Z" fill="#2B80A9"/><path d="M2652.12 1168.36 2647.65 1171.97C2667.29 1175.02 2682.48 1191.51 2683.54 1211.74 2683.58 1210.98 2683.6 1210.22 2683.6 1209.45 2683.6 1189.78 2670.25 1173.23 2652.12 1168.36Z" fill="#2F5D74"/><path d="M2583.54 1213.94C2583.54 1213.96 2583.54 1213.98 2583.54 1214 2583.55 1213.98 2583.54 1213.96 2583.54 1213.94Z" fill="#2D7395"/><path d="M2581.27 1213.94 2583.5 1213.94 2583.54 1213.94 2583.71 1213.94C2585.35 1242.59 2602.3 1260.14 2624.74 1266.77L2629.66 1265.84 2633.98 1261.3 2634.37 1256.02C2614.05 1252.81 2598.52 1235.22 2598.52 1214 2598.52 1213.98 2598.52 1213.96 2598.52 1213.94L2601.65 1213.94C2602.71 1213.94 2603.3 1212.71 2602.63 1211.88L2593.33 1200.37C2592.86 1199.78 2591.97 1199.74 2591.44 1200.29L2580.36 1211.8C2579.58 1212.6 2580.15 1213.94 2581.27 1213.94Z" fill="#2D7395"/><path d="M2629.66 1265.84C2604.78 1260.84 2585.71 1239.78 2583.71 1213.94L2583.54 1213.94C2583.54 1213.96 2583.54 1213.98 2583.54 1214 2583.54 1243.81 2606.21 1268.32 2635.26 1271.23L2634.72 1268.65Z" fill="#305060"/><path d="M2668.05 1210.54 2663.24 1209.81C2662.65 1206.69 2661.43 1203.8 2659.7 1201.28L2662.59 1197.36C2663.1 1196.68 2663.03 1195.73 2662.42 1195.12L2659.93 1192.63C2659.33 1192.03 2658.38 1191.96 2657.7 1192.47L2653.78 1195.36C2651.26 1193.63 2648.36 1192.4 2645.24 1191.82L2644.52 1187.01C2644.39 1186.17 2643.67 1185.54 2642.82 1185.54L2639.3 1185.54C2638.45 1185.54 2637.72 1186.17 2637.6 1187.01L2636.87 1191.82C2633.75 1192.4 2630.86 1193.63 2628.34 1195.36L2624.42 1192.47C2623.74 1191.96 2622.78 1192.03 2622.18 1192.63L2619.69 1195.12C2619.09 1195.73 2619.02 1196.68 2619.52 1197.36L2622.42 1201.28C2620.69 1203.8 2619.46 1206.69 2618.88 1209.81L2614.07 1210.54C2613.23 1210.66 2612.6 1211.39 2612.6 1212.24L2612.6 1215.76C2612.6 1216.61 2613.23 1217.34 2614.07 1217.46L2618.88 1218.19C2619.46 1221.31 2620.69 1224.2 2622.42 1226.72L2619.52 1230.64C2619.02 1231.32 2619.09 1232.27 2619.69 1232.88L2622.18 1235.37C2622.78 1235.97 2623.74 1236.04 2624.42 1235.53L2628.34 1232.64C2630.86 1234.37 2633.75 1235.6 2636.87 1236.18L2637.6 1240.99C2637.72 1241.83 2638.45 1242.46 2639.3 1242.46L2642.82 1242.46C2643.67 1242.46 2644.39 1241.83 2644.52 1240.99L2645.24 1236.18C2648.36 1235.59 2651.26 1234.37 2653.78 1232.64L2657.7 1235.53C2658.38 1236.04 2659.33 1235.97 2659.94 1235.37L2662.43 1232.88C2663.03 1232.27 2663.1 1231.32 2662.59 1230.64L2659.7 1226.72C2661.43 1224.2 2662.65 1221.31 2663.24 1218.19L2668.05 1217.46C2668.89 1217.34 2669.51 1216.61 2669.51 1215.76L2669.51 1212.24C2669.51 1211.39 2668.89 1210.66 2668.05 1210.54ZM2652.11 1218.55C2650.64 1224.59 2645.73 1227.71 2641.06 1227.71 2635.99 1227.71 2631.45 1224.67 2630.08 1218.55L2629.9 1216.28C2629.75 1215.54 2629.67 1214.78 2629.67 1214 2629.67 1207.71 2634.77 1202.61 2641.06 1202.61 2647.35 1202.61 2652.45 1207.71 2652.45 1214 2652.45 1214.78 2652.37 1215.54 2652.22 1216.28Z" fill="#4B90B1"/><path d="M2652.45 1218.55C2652.45 1217.77 2652.37 1217.01 2652.22 1216.28 2651.17 1221.48 2646.57 1225.39 2641.06 1225.39 2635.55 1225.39 2630.95 1221.48 2629.9 1216.28 2629.75 1217.01 2629.67 1217.77 2629.67 1218.55 2629.67 1224.84 2634.77 1229.94 2641.06 1229.94 2647.35 1229.94 2652.45 1224.84 2652.45 1218.55Z" fill="#286C8D"/><path d="M2641.06 1266.97C2637.15 1266.97 2633.34 1266.58 2629.66 1265.84L2638.8 1274.64C2639.6 1275.42 2640.94 1274.85 2640.94 1273.73L2640.94 1271.52C2640.98 1271.52 2641.02 1271.52 2641.06 1271.52 2670.91 1271.52 2695.45 1248.78 2698.3 1219.67L2697.52 1220.48C2692.37 1246.97 2669.05 1266.97 2641.06 1266.97Z" fill="#64A8C9"/><path d="M2690.56 1227.71C2690.03 1228.26 2689.14 1228.22 2688.67 1227.63L2683.07 1220.7C2679.86 1241.01 2662.27 1256.54 2641.06 1256.54 2641.02 1256.54 2640.98 1256.54 2640.94 1256.54L2640.94 1256.52 2640.94 1253.35C2640.94 1252.29 2639.71 1251.7 2638.88 1252.37L2627.37 1261.67C2626.78 1262.14 2626.74 1263.03 2627.29 1263.56L2629.66 1265.84C2633.14 1267.58 2637.81 1269.54 2641.71 1269.54 2669.71 1269.54 2692.69 1247.22 2697.84 1220.73L2697.92 1220.07Z" fill="#A7CBDD"/></g></g></g><path d="M3616 785.5C3616 743.802 3649.8 710 3691.5 710 3733.2 710 3767 743.802 3767 785.5 3767 827.198 3733.2 861 3691.5 861 3649.8 861 3616 827.198 3616 785.5Z" stroke="#E0EDF4" stroke-width="27.5" stroke-linejoin="round" stroke-miterlimit="10" fill="#27576E" fill-rule="evenodd"/><path d="M2565 785.5C2565 743.802 2599.03 710 2641 710 2682.97 710 2717 743.802 2717 785.5 2717 827.198 2682.97 861 2641 861 2599.03 861 2565 827.198 2565 785.5Z" stroke="#E0EDF4" stroke-width="27.5" stroke-linejoin="round" stroke-miterlimit="10" fill="#27576E" fill-rule="evenodd"/><path d="M2565 1836.5C2565 1794.8 2599.03 1761 2641 1761 2682.97 1761 2717 1794.8 2717 1836.5 2717 1878.2 2682.97 1912 2641 1912 2599.03 1912 2565 1878.2 2565 1836.5Z" stroke="#E0EDF4" stroke-width="27.5" stroke-linejoin="round" stroke-miterlimit="10" fill="#27576E" fill-rule="evenodd"/><path d="M3616 1836.5C3616 1794.8 3649.8 1761 3691.5 1761 3733.2 1761 3767 1794.8 3767 1836.5 3767 1878.2 3733.2 1912 3691.5 1912 3649.8 1912 3616 1878.2 3616 1836.5Z" stroke="#E0EDF4" stroke-width="27.5" stroke-linejoin="round" stroke-miterlimit="10" fill="#27576E" fill-rule="evenodd"/><g clip-path="url(#clip13)"><g clip-path="url(#clip14)"><g clip-path="url(#clip15)"><path d="M2617.36 762.355 2612.38 762.355 2601 790.129 2603.47 792.443 2605.82 790.129 2614.89 768.372 2623.95 790.129 2626.38 792.443 2628.77 790.129Z" fill="#D8E6ED"/><path d="M2668.59 762.355 2663.61 762.355 2652.23 790.129 2654.7 792.443 2657.05 790.129 2666.11 768.372 2675.18 790.129 2677.6 792.443 2680 790.129Z" fill="#FFFFFF"/><path d="M2640.5 746 2638.19 746 2638.19 757.727 2640.5 757.727 2642.81 757.727 2642.81 746Z" fill="#EBF4F9"/><path d="M2640.5 746 2642.81 746 2642.81 757.727 2640.5 757.727Z" fill="#D8E6ED"/><path d="M2605.63 760.041 2635.87 760.041 2635.87 764.67 2605.63 764.67Z" fill="#EBF4F9"/><path d="M2645.13 760.041 2675.37 760.041 2675.37 764.67 2645.13 764.67Z" fill="#D8E6ED"/><path d="M2640.5 766.984 2638.19 766.984 2638.19 808.799 2640.5 808.799 2642.81 808.799 2642.81 766.984Z" fill="#EBF4F9"/><path d="M2640.5 766.984 2642.81 766.984 2642.81 808.799 2640.5 808.799Z" fill="#D8E6ED"/><path d="M2601 790.129C2601 796.52 2606.18 801.701 2612.57 801.701L2617.2 801.701C2623.59 801.701 2628.77 796.52 2628.77 790.129Z" fill="#EBF4F9"/><path d="M2652.23 790.129C2652.23 796.52 2657.41 801.701 2663.8 801.701L2668.43 801.701C2674.82 801.701 2680 796.52 2680 790.129Z" fill="#D8E6ED"/><path d="M2647.44 762.355C2647.44 766.19 2644.33 769.299 2640.5 769.299 2636.67 769.299 2633.56 766.19 2633.56 762.355 2633.56 758.521 2636.67 755.412 2640.5 755.412 2644.33 755.412 2647.44 758.521 2647.44 762.355Z" fill="#D8E6ED"/><path d="M2647.44 762.355C2647.44 758.527 2644.33 755.412 2640.5 755.412L2640.5 769.299C2644.33 769.299 2647.44 766.184 2647.44 762.355Z" fill="#FFFFFF"/><path d="M2640.5 806.484C2634.12 806.484 2628.93 811.676 2628.93 818.057L2640.5 818.057 2652.07 818.057C2652.07 811.676 2646.88 806.484 2640.5 806.484Z" fill="#D8E6ED"/><path d="M2640.5 806.484 2640.5 818.057 2652.07 818.057C2652.07 811.676 2646.88 806.484 2640.5 806.484Z" fill="#FFFFFF"/><path d="M2654.39 815.742 2640.5 815.742 2626.61 815.742C2622.78 815.742 2619.67 818.851 2619.67 822.686L2619.67 825 2640.5 825 2661.33 825 2661.33 822.686C2661.33 818.851 2658.22 815.742 2654.39 815.742Z" fill="#EBF4F9"/><path d="M2661.33 822.686C2661.33 818.851 2658.22 815.742 2654.39 815.742L2640.5 815.742 2640.5 825 2661.33 825Z" fill="#D8E6ED"/></g></g></g><g clip-path="url(#clip16)"><g clip-path="url(#clip17)"><g clip-path="url(#clip18)"><path d="M3668.36 762.355 3663.38 762.355 3652 790.129 3654.47 792.443 3656.82 790.129 3665.89 768.372 3674.95 790.129 3677.38 792.443 3679.77 790.129Z" fill="#D8E6ED"/><path d="M3719.59 762.355 3714.61 762.355 3703.23 790.129 3705.7 792.443 3708.05 790.129 3717.11 768.372 3726.18 790.129 3728.6 792.443 3731 790.129Z" fill="#FFFFFF"/><path d="M3691.5 746 3689.19 746 3689.19 757.727 3691.5 757.727 3693.81 757.727 3693.81 746Z" fill="#EBF4F9"/><path d="M3691.5 746 3693.81 746 3693.81 757.727 3691.5 757.727Z" fill="#D8E6ED"/><path d="M3656.63 760.041 3686.87 760.041 3686.87 764.67 3656.63 764.67Z" fill="#EBF4F9"/><path d="M3696.13 760.041 3726.37 760.041 3726.37 764.67 3696.13 764.67Z" fill="#D8E6ED"/><path d="M3691.5 766.984 3689.19 766.984 3689.19 808.799 3691.5 808.799 3693.81 808.799 3693.81 766.984Z" fill="#EBF4F9"/><path d="M3691.5 766.984 3693.81 766.984 3693.81 808.799 3691.5 808.799Z" fill="#D8E6ED"/><path d="M3652 790.129C3652 796.52 3657.18 801.701 3663.57 801.701L3668.2 801.701C3674.59 801.701 3679.77 796.52 3679.77 790.129Z" fill="#EBF4F9"/><path d="M3703.23 790.129C3703.23 796.52 3708.41 801.701 3714.8 801.701L3719.43 801.701C3725.82 801.701 3731 796.52 3731 790.129Z" fill="#D8E6ED"/><path d="M3698.44 762.355C3698.44 766.19 3695.33 769.299 3691.5 769.299 3687.67 769.299 3684.56 766.19 3684.56 762.355 3684.56 758.521 3687.67 755.412 3691.5 755.412 3695.33 755.412 3698.44 758.521 3698.44 762.355Z" fill="#D8E6ED"/><path d="M3698.44 762.355C3698.44 758.527 3695.33 755.412 3691.5 755.412L3691.5 769.299C3695.33 769.299 3698.44 766.184 3698.44 762.355Z" fill="#FFFFFF"/><path d="M3691.5 806.484C3685.12 806.484 3679.93 811.676 3679.93 818.057L3691.5 818.057 3703.07 818.057C3703.07 811.676 3697.88 806.484 3691.5 806.484Z" fill="#D8E6ED"/><path d="M3691.5 806.484 3691.5 818.057 3703.07 818.057C3703.07 811.676 3697.88 806.484 3691.5 806.484Z" fill="#FFFFFF"/><path d="M3705.39 815.742 3691.5 815.742 3677.61 815.742C3673.78 815.742 3670.67 818.851 3670.67 822.686L3670.67 825 3691.5 825 3712.33 825 3712.33 822.686C3712.33 818.851 3709.22 815.742 3705.39 815.742Z" fill="#EBF4F9"/><path d="M3712.33 822.686C3712.33 818.851 3709.22 815.742 3705.39 815.742L3691.5 815.742 3691.5 825 3712.33 825Z" fill="#D8E6ED"/></g></g></g><g clip-path="url(#clip19)"><g clip-path="url(#clip20)"><g clip-path="url(#clip21)"><path d="M3668.36 1813.36 3663.38 1813.36 3652 1841.13 3654.47 1843.44 3656.82 1841.13 3665.89 1819.37 3674.95 1841.13 3677.38 1843.44 3679.77 1841.13Z" fill="#D8E6ED"/><path d="M3719.59 1813.36 3714.61 1813.36 3703.23 1841.13 3705.7 1843.44 3708.05 1841.13 3717.11 1819.37 3726.18 1841.13 3728.6 1843.44 3731 1841.13Z" fill="#FFFFFF"/><path d="M3691.5 1797 3689.19 1797 3689.19 1808.73 3691.5 1808.73 3693.81 1808.73 3693.81 1797Z" fill="#EBF4F9"/><path d="M3691.5 1797 3693.81 1797 3693.81 1808.73 3691.5 1808.73Z" fill="#D8E6ED"/><path d="M3656.63 1811.04 3686.87 1811.04 3686.87 1815.67 3656.63 1815.67Z" fill="#EBF4F9"/><path d="M3696.13 1811.04 3726.37 1811.04 3726.37 1815.67 3696.13 1815.67Z" fill="#D8E6ED"/><path d="M3691.5 1817.98 3689.19 1817.98 3689.19 1859.8 3691.5 1859.8 3693.81 1859.8 3693.81 1817.98Z" fill="#EBF4F9"/><path d="M3691.5 1817.98 3693.81 1817.98 3693.81 1859.8 3691.5 1859.8Z" fill="#D8E6ED"/><path d="M3652 1841.13C3652 1847.52 3657.18 1852.7 3663.57 1852.7L3668.2 1852.7C3674.59 1852.7 3679.77 1847.52 3679.77 1841.13Z" fill="#EBF4F9"/><path d="M3703.23 1841.13C3703.23 1847.52 3708.41 1852.7 3714.8 1852.7L3719.43 1852.7C3725.82 1852.7 3731 1847.52 3731 1841.13Z" fill="#D8E6ED"/><path d="M3698.44 1813.36C3698.44 1817.19 3695.33 1820.3 3691.5 1820.3 3687.67 1820.3 3684.56 1817.19 3684.56 1813.36 3684.56 1809.52 3687.67 1806.41 3691.5 1806.41 3695.33 1806.41 3698.44 1809.52 3698.44 1813.36Z" fill="#D8E6ED"/><path d="M3698.44 1813.36C3698.44 1809.53 3695.33 1806.41 3691.5 1806.41L3691.5 1820.3C3695.33 1820.3 3698.44 1817.18 3698.44 1813.36Z" fill="#FFFFFF"/><path d="M3691.5 1857.48C3685.12 1857.48 3679.93 1862.68 3679.93 1869.06L3691.5 1869.06 3703.07 1869.06C3703.07 1862.68 3697.88 1857.48 3691.5 1857.48Z" fill="#D8E6ED"/><path d="M3691.5 1857.48 3691.5 1869.06 3703.07 1869.06C3703.07 1862.68 3697.88 1857.48 3691.5 1857.48Z" fill="#FFFFFF"/><path d="M3705.39 1866.74 3691.5 1866.74 3677.61 1866.74C3673.78 1866.74 3670.67 1869.85 3670.67 1873.69L3670.67 1876 3691.5 1876 3712.33 1876 3712.33 1873.69C3712.33 1869.85 3709.22 1866.74 3705.39 1866.74Z" fill="#EBF4F9"/><path d="M3712.33 1873.69C3712.33 1869.85 3709.22 1866.74 3705.39 1866.74L3691.5 1866.74 3691.5 1876 3712.33 1876Z" fill="#D8E6ED"/></g></g></g><g clip-path="url(#clip22)"><g clip-path="url(#clip23)"><g clip-path="url(#clip24)"><path d="M2617.36 1813.36 2612.38 1813.36 2601 1841.13 2603.47 1843.44 2605.82 1841.13 2614.89 1819.37 2623.95 1841.13 2626.38 1843.44 2628.77 1841.13Z" fill="#D8E6ED"/><path d="M2668.59 1813.36 2663.61 1813.36 2652.23 1841.13 2654.7 1843.44 2657.05 1841.13 2666.11 1819.37 2675.18 1841.13 2677.6 1843.44 2680 1841.13Z" fill="#FFFFFF"/><path d="M2640.5 1797 2638.19 1797 2638.19 1808.73 2640.5 1808.73 2642.81 1808.73 2642.81 1797Z" fill="#EBF4F9"/><path d="M2640.5 1797 2642.81 1797 2642.81 1808.73 2640.5 1808.73Z" fill="#D8E6ED"/><path d="M2605.63 1811.04 2635.87 1811.04 2635.87 1815.67 2605.63 1815.67Z" fill="#EBF4F9"/><path d="M2645.13 1811.04 2675.37 1811.04 2675.37 1815.67 2645.13 1815.67Z" fill="#D8E6ED"/><path d="M2640.5 1817.98 2638.19 1817.98 2638.19 1859.8 2640.5 1859.8 2642.81 1859.8 2642.81 1817.98Z" fill="#EBF4F9"/><path d="M2640.5 1817.98 2642.81 1817.98 2642.81 1859.8 2640.5 1859.8Z" fill="#D8E6ED"/><path d="M2601 1841.13C2601 1847.52 2606.18 1852.7 2612.57 1852.7L2617.2 1852.7C2623.59 1852.7 2628.77 1847.52 2628.77 1841.13Z" fill="#EBF4F9"/><path d="M2652.23 1841.13C2652.23 1847.52 2657.41 1852.7 2663.8 1852.7L2668.43 1852.7C2674.82 1852.7 2680 1847.52 2680 1841.13Z" fill="#D8E6ED"/><path d="M2647.44 1813.36C2647.44 1817.19 2644.33 1820.3 2640.5 1820.3 2636.67 1820.3 2633.56 1817.19 2633.56 1813.36 2633.56 1809.52 2636.67 1806.41 2640.5 1806.41 2644.33 1806.41 2647.44 1809.52 2647.44 1813.36Z" fill="#D8E6ED"/><path d="M2647.44 1813.36C2647.44 1809.53 2644.33 1806.41 2640.5 1806.41L2640.5 1820.3C2644.33 1820.3 2647.44 1817.18 2647.44 1813.36Z" fill="#FFFFFF"/><path d="M2640.5 1857.48C2634.12 1857.48 2628.93 1862.68 2628.93 1869.06L2640.5 1869.06 2652.07 1869.06C2652.07 1862.68 2646.88 1857.48 2640.5 1857.48Z" fill="#D8E6ED"/><path d="M2640.5 1857.48 2640.5 1869.06 2652.07 1869.06C2652.07 1862.68 2646.88 1857.48 2640.5 1857.48Z" fill="#FFFFFF"/><path d="M2654.39 1866.74 2640.5 1866.74 2626.61 1866.74C2622.78 1866.74 2619.67 1869.85 2619.67 1873.69L2619.67 1876 2640.5 1876 2661.33 1876 2661.33 1873.69C2661.33 1869.85 2658.22 1866.74 2654.39 1866.74Z" fill="#EBF4F9"/><path d="M2661.33 1873.69C2661.33 1869.85 2658.22 1866.74 2654.39 1866.74L2640.5 1866.74 2640.5 1876 2661.33 1876Z" fill="#D8E6ED"/></g></g></g></g></svg>